<?xml version="1.0" encoding="UTF-8"?><svg id="Layer_2" xmlns="http://www.w3.org/2000/svg" xmlns:xlink="http://www.w3.org/1999/xlink" viewBox="0 0 460.62 376.86"><defs><style>.cls-1,.cls-2{stroke:#231f20;}.cls-1,.cls-2,.cls-3,.cls-4,.cls-5{fill:none;}.cls-1,.cls-4,.cls-6,.cls-5,.cls-7{stroke-miterlimit:10;}.cls-8{fill:#808285;}.cls-8,.cls-9,.cls-10,.cls-3,.cls-11,.cls-12,.cls-13,.cls-14,.cls-15,.cls-16,.cls-17,.cls-18{stroke-width:0px;}.cls-2{stroke-linejoin:round;stroke-width:.3px;}.cls-9{fill:#58595b;}.cls-10{fill:#e6e7e8;}.cls-11{fill:#fff;}.cls-4,.cls-5{stroke:#58595b;}.cls-12{fill:#939598;}.cls-6{fill:url(#Diagonal_Lines);fill-opacity:.2;stroke:#939598;}.cls-6,.cls-5,.cls-7{stroke-width:2px;}.cls-13{fill:#a7a9ac;}.cls-14{fill:#231f20;}.cls-15{fill:#f1f2f2;}.cls-16{fill:#bcbec0;}.cls-17{fill:#d1d3d4;}.cls-18{fill:#414042;}.cls-7{fill:#2bb673;opacity:.35;stroke:#006838;}</style><pattern id="Diagonal_Lines" x="0" y="0" width="72" height="72" patternTransform="translate(-6355.53 -15254.95) rotate(-122.5) scale(.69)" patternUnits="userSpaceOnUse" viewBox="0 0 72 72"><rect class="cls-3" width="72" height="72"/><line class="cls-2" x1="64.52" y1="82.52" x2="82.52" y2="64.52"/><line class="cls-2" x1="64.52" y1="88.52" x2="88.52" y2="64.52"/><line class="cls-2" x1="64.52" y1="94.52" x2="94.52" y2="64.52"/><line class="cls-2" x1="64.52" y1="100.52" x2="100.52" y2="64.52"/><line class="cls-2" x1="64.52" y1="106.52" x2="106.52" y2="64.52"/><line class="cls-2" x1="64.52" y1="112.52" x2="112.52" y2="64.52"/><line class="cls-2" x1="64.52" y1="118.52" x2="118.52" y2="64.52"/><line class="cls-2" x1="64.52" y1="124.52" x2="124.52" y2="64.52"/><line class="cls-2" x1="64.52" y1="130.52" x2="130.52" y2="64.52"/><line class="cls-2" x1="64.52" y1="136.52" x2="136.52" y2="64.52"/><line class="cls-2" x1="64.52" y1="142.52" x2="142.52" y2="64.52"/><line class="cls-2" x1="64.52" y1="148.51" x2="148.52" y2="64.52"/><line class="cls-2" x1="70.52" y1="148.51" x2="148.52" y2="70.52"/><line class="cls-2" x1="-7.48" y1="82.52" x2="10.52" y2="64.52"/><line class="cls-2" x1="-7.48" y1="88.52" x2="16.52" y2="64.52"/><line class="cls-2" x1="-7.48" y1="94.52" x2="22.52" y2="64.52"/><line class="cls-2" x1="-7.48" y1="100.52" x2="28.52" y2="64.52"/><line class="cls-2" x1="-7.48" y1="106.52" x2="34.52" y2="64.52"/><line class="cls-2" x1="-7.48" y1="112.52" x2="40.52" y2="64.52"/><line class="cls-2" x1="-7.48" y1="118.52" x2="46.52" y2="64.52"/><line class="cls-2" x1="-7.48" y1="124.52" x2="52.52" y2="64.52"/><line class="cls-2" x1="-7.48" y1="130.52" x2="58.52" y2="64.52"/><line class="cls-2" x1="-7.48" y1="136.52" x2="64.52" y2="64.52"/><line class="cls-2" x1="-7.48" y1="142.52" x2="70.52" y2="64.52"/><line class="cls-2" x1="-7.48" y1="148.51" x2="76.52" y2="64.52"/><line class="cls-2" x1="-1.48" y1="148.51" x2="76.52" y2="70.52"/><line class="cls-2" x1="-79.48" y1="148.51" x2="4.52" y2="64.52"/><line class="cls-2" x1="-73.48" y1="148.51" x2="4.52" y2="70.52"/><line class="cls-2" x1="64.52" y1="10.52" x2="82.52" y2="-7.48"/><line class="cls-2" x1="64.52" y1="16.52" x2="88.52" y2="-7.48"/><line class="cls-2" x1="64.52" y1="22.52" x2="94.52" y2="-7.48"/><line class="cls-2" x1="64.52" y1="28.52" x2="100.52" y2="-7.48"/><line class="cls-2" x1="64.52" y1="34.52" x2="106.52" y2="-7.48"/><line class="cls-2" x1="64.52" y1="40.52" x2="112.52" y2="-7.48"/><line class="cls-2" x1="64.52" y1="46.52" x2="118.52" y2="-7.48"/><line class="cls-2" x1="64.52" y1="52.52" x2="124.52" y2="-7.48"/><line class="cls-2" x1="64.52" y1="58.52" x2="130.52" y2="-7.48"/><line class="cls-2" x1="64.52" y1="64.52" x2="136.52" y2="-7.48"/><line class="cls-2" x1="64.52" y1="70.52" x2="142.52" y2="-7.48"/><line class="cls-2" x1="64.52" y1="76.51" x2="148.52" y2="-7.48"/><line class="cls-2" x1="70.52" y1="76.51" x2="148.52" y2="-1.48"/><line class="cls-2" x1="-7.48" y1="10.52" x2="10.52" y2="-7.48"/><line class="cls-2" x1="-7.48" y1="16.52" x2="16.52" y2="-7.48"/><line class="cls-2" x1="-7.48" y1="22.52" x2="22.52" y2="-7.48"/><line class="cls-2" x1="-7.48" y1="28.52" x2="28.52" y2="-7.48"/><line class="cls-2" x1="-7.48" y1="34.52" x2="34.52" y2="-7.48"/><line class="cls-2" x1="-7.48" y1="40.52" x2="40.52" y2="-7.48"/><line class="cls-2" x1="-7.48" y1="46.52" x2="46.52" y2="-7.48"/><line class="cls-2" x1="-7.48" y1="52.52" x2="52.52" y2="-7.48"/><line class="cls-2" x1="-7.48" y1="58.52" x2="58.52" y2="-7.48"/><line class="cls-2" x1="-7.48" y1="64.52" x2="64.52" y2="-7.48"/><line class="cls-2" x1="-7.48" y1="70.52" x2="70.52" y2="-7.48"/><line class="cls-2" x1="-7.48" y1="76.51" x2="76.52" y2="-7.48"/><line class="cls-2" x1="-1.48" y1="76.51" x2="76.52" y2="-1.48"/><line class="cls-2" x1="4.52" y1="76.51" x2="76.52" y2="4.52"/><line class="cls-2" x1="10.52" y1="76.51" x2="76.52" y2="10.52"/><line class="cls-2" x1="16.52" y1="76.51" x2="76.52" y2="16.52"/><line class="cls-2" x1="22.52" y1="76.51" x2="76.52" y2="22.52"/><line class="cls-2" x1="28.52" y1="76.51" x2="76.52" y2="28.52"/><line class="cls-2" x1="34.52" y1="76.51" x2="76.52" y2="34.52"/><line class="cls-2" x1="40.52" y1="76.51" x2="76.52" y2="40.52"/><line class="cls-2" x1="46.52" y1="76.51" x2="76.52" y2="46.52"/><line class="cls-2" x1="52.52" y1="76.51" x2="76.52" y2="52.52"/><line class="cls-2" x1="58.52" y1="76.51" x2="76.52" y2="58.52"/><line class="cls-2" x1="64.52" y1="76.51" x2="76.52" y2="64.52"/><line class="cls-2" x1="-79.48" y1="76.51" x2="4.52" y2="-7.48"/><line class="cls-2" x1="-73.48" y1="76.51" x2="4.52" y2="-1.48"/><line class="cls-2" x1="-67.48" y1="76.51" x2="4.52" y2="4.52"/><line class="cls-2" x1="-61.48" y1="76.51" x2="4.52" y2="10.52"/><line class="cls-2" x1="-55.48" y1="76.51" x2="4.52" y2="16.52"/><line class="cls-2" x1="-49.48" y1="76.51" x2="4.52" y2="22.52"/><line class="cls-2" x1="-43.48" y1="76.51" x2="4.52" y2="28.52"/><line class="cls-2" x1="-37.48" y1="76.51" x2="4.52" y2="34.52"/><line class="cls-2" x1="-31.48" y1="76.51" x2="4.52" y2="40.52"/><line class="cls-2" x1="-25.48" y1="76.51" x2="4.52" y2="46.52"/><line class="cls-2" x1="-19.48" y1="76.51" x2="4.52" y2="52.52"/><line class="cls-2" x1="-13.48" y1="76.51" x2="4.52" y2="58.52"/><line class="cls-2" x1="-7.48" y1="76.51" x2="4.52" y2="64.52"/><line class="cls-2" x1="64.52" y1="4.51" x2="148.52" y2="-79.48"/><line class="cls-2" x1="70.52" y1="4.51" x2="148.52" y2="-73.48"/><line class="cls-2" x1="-7.48" y1="4.51" x2="76.52" y2="-79.48"/><line class="cls-2" x1="-1.48" y1="4.51" x2="76.52" y2="-73.48"/><line class="cls-2" x1="4.52" y1="4.51" x2="76.52" y2="-67.48"/><line class="cls-2" x1="10.52" y1="4.51" x2="76.52" y2="-61.48"/><line class="cls-2" x1="16.52" y1="4.51" x2="76.52" y2="-55.48"/><line class="cls-2" x1="22.52" y1="4.51" x2="76.52" y2="-49.48"/><line class="cls-2" x1="28.52" y1="4.51" x2="76.52" y2="-43.48"/><line class="cls-2" x1="34.52" y1="4.51" x2="76.52" y2="-37.48"/><line class="cls-2" x1="40.52" y1="4.51" x2="76.52" y2="-31.48"/><line class="cls-2" x1="46.52" y1="4.51" x2="76.52" y2="-25.48"/><line class="cls-2" x1="52.52" y1="4.51" x2="76.52" y2="-19.48"/><line class="cls-2" x1="58.52" y1="4.51" x2="76.52" y2="-13.48"/><line class="cls-2" x1="64.52" y1="4.51" x2="76.52" y2="-7.48"/><line class="cls-2" x1="-79.48" y1="4.51" x2="4.52" y2="-79.48"/><line class="cls-2" x1="-73.48" y1="4.51" x2="4.52" y2="-73.48"/><line class="cls-2" x1="-67.48" y1="4.51" x2="4.52" y2="-67.48"/><line class="cls-2" x1="-61.48" y1="4.51" x2="4.52" y2="-61.48"/><line class="cls-2" x1="-55.48" y1="4.51" x2="4.52" y2="-55.48"/><line class="cls-2" x1="-49.48" y1="4.51" x2="4.52" y2="-49.48"/><line class="cls-2" x1="-43.48" y1="4.51" x2="4.52" y2="-43.48"/><line class="cls-2" x1="-37.48" y1="4.51" x2="4.52" y2="-37.48"/><line class="cls-2" x1="-31.48" y1="4.51" x2="4.52" y2="-31.48"/><line class="cls-2" x1="-25.48" y1="4.51" x2="4.52" y2="-25.48"/><line class="cls-2" x1="-19.48" y1="4.51" x2="4.52" y2="-19.48"/><line class="cls-2" x1="-13.48" y1="4.51" x2="4.52" y2="-13.48"/><line class="cls-2" x1="-7.48" y1="4.51" x2="4.52" y2="-7.48"/></pattern></defs><g id="tabletop"><path class="cls-6" d="M457.9,279.14l-159.99,96.66S3.6,312.04,1.03,309.16s182.47-78.96,182.47-78.96l9.02-4.32,265.39,53.27Z"/><g id="Layer_21"><ellipse class="cls-7" cx="290.19" cy="279.26" rx="54.83" ry="18.68"/></g></g><g id="panda"><g id="colors"><path class="cls-17" d="M208.73,62.53c.07.08.13.14.19.19v.02s.03.05.03.05l-.2.17c-1.74.63-9.92,3.35-17.2-.12-.49-.24-.97-.5-1.45-.79-9.17-5.6-12.9-20.5-5.82-34.46l-.83-.08c3.53-7.7,7.89-13.34,13.05-17.02,2.01-.61,3.88-1.43,5.79-2.04,5.29-1.69,11.55-1.96,17.3-.91-13.61.01-23.91,11.8-23.4,34.07.21,1.48.14,3.05.44,4.69,1.71,7.26,6.27,13.21,12.1,16.23Z"/><path class="cls-10" d="M110.27,143.06l2.57.8c-.59,1.82-.86,2.92-.86,2.92l1.64,1.83s-4.42,23.85,22.21,45.33c0,0-2.46,90.2,9.1,90.33l14.05-2.93,3.16-.66s8.62,5.53,5.49,26.87l.07.09c-15.47,12.2-50.85,13.77-66.76,4.98-3.33-1.84-5.81-4.13-7.07-6.88-2.84-6.17.7-14.07,6.06-26.02,7.95-17.74,15.73-19.99,16.89-32.29.96-10.12-4.13-10.43-4.17-22.89-.05-17.4,9.87-21.58,6.73-32.18-3.09-10.45-13.77-9.89-18.13-20.86-3.97-10,.99-20.28,4.6-28.53,4.72-10.79,7.84-18.92,10.33-26.52l2.48.84c-2.79,8.29-5.59,16.9-8.39,25.77Z"/><path class="cls-10" d="M311.3,191.81c1.07-.38-2.2,7.92-3.08,8.25l-11.05.98-.15-5.73.04-.95c4.52.29,12.62-2.06,14.03-2.49l.21-.06Z"/><path class="cls-10" d="M311.04,204.39c-.36,4.95-.73,9.89-1.09,14.84-.96.75-5.24,3.97-10.53,2.98l.86-15.86s-1.66-4.47-9.69-6.86c0,0-17.69.42-23.6-9.92.23-.16.45-.4.63-.76l.08.04s2.52,1.28,4.11,2.05c-.61,6.35,17.55,6.84,17.55,6.84l7.81,3.3,11.05-.98-5.79.81c2.87,1.17,5.74,2.35,8.61,3.52Z"/><path class="cls-17" d="M300.85,184.36c5.38,6.65,8.42,7.98,10.24,7.51-1.41.43-9.51,2.78-14.03,2.49-.32,0-.61-.04-.89-.09-4.64-.79-9.19-7.29-9.3-7.29l-.02-.6c5.01-.1,10.64-.58,14-2.02Z"/><path class="cls-10" d="M263.09,148.02l-.17-.4c5.1-1.53,10.38-6.71,13.69-9.95,1.39-1.36,1.79-1.91,2.93-2.54,4.96-2.75,12.7-.98,17.02,3.52,2.72,2.83,3.37,5.97,4.3,10.85.85,4.48,1.61,11.54.1,20.43-.59,2.98-1.23,5.3-1.72,6.9-.45,1.52-.84,2.6-.56,4.01.33,1.67,1.41,2.85,2.17,3.52-3.36,1.44-8.99,1.92-14,2.02-5.42.1-10.12-.23-10.48-.28-.42-.05-1.08-.05-1.39-.88-.2-.54-.24-1.42.03-2.9l-.08-.48c3.83-.67,8.24-1.92,10.87-4.18,0,0,.84-.92,1.86-2.9,1.11-2.12,2.44-5.47,3.17-10.22.13-.82.23-1.69.32-2.6.56-5.86-23.14-11.93-30.61,3.25-7.21,14.64,6.66,17.35,7.03,17.42l-.11.98c-2.5-.24-7.59-1.24-12.89-2.4l.1-.48c-1.3-1.84-9.57-24.87,8.42-32.69Z"/><path class="cls-17" d="M300.28,206.35l-.86,15.86c-1.45-.28-2.65-.8-3.58-1.35-1.67-.62-3.35-1.23-5.02-1.85h0c-8.2-4.33-16.39-8.66-24.59-12.99-1.3-.43-2.06-1.06-2.53-1.63-2.4-2.91-1.17-8.93,3.3-14.82,5.91,10.34,23.6,9.92,23.6,9.92,8.03,2.39,9.69,6.86,9.69,6.86Z"/><path class="cls-12" d="M260.54,165.19c7.47-15.18,31.17-9.11,30.61-3.25-.09.91-.19,1.78-.32,2.6l-.37-.06c-.09-1.07-14.28-8.93-21.14,3.98s18,6.13,18,6.13l.34.17c-1.02,1.98-1.86,2.9-1.86,2.9-2.63,2.26-7.04,3.51-10.87,4.18-3.89.7-7.18.8-7.36.77-.37-.07-14.24-2.78-7.03-17.42Z"/><path class="cls-15" d="M290.46,164.48l.37.06c-.73,4.75-2.06,8.1-3.17,10.22l-.34-.17s-24.86,6.78-18-6.13,21.05-5.05,21.14-3.98Z"/><path class="cls-15" d="M290.81,219.01c-10.73-3.96-21.47-7.92-32.2-11.88,0-.44.14-10.7,2.49-14.5.4-.65.94-1.53,2.01-2.13,1.65-.94,2.89-.25,3.88-.93-4.47,5.89-5.7,11.91-3.3,14.82.47.57,1.23,1.2,2.53,1.63,8.2,4.33,16.39,8.66,24.59,12.99Z"/><path class="cls-17" d="M262.92,147.62l.17.4c-17.99,7.82-9.72,30.85-8.42,32.69l-.1.48c-1.33-.3-2.67-.6-3.99-.91-1.53-1.88-5.45-7.99-2.74-18.59.22-.87.49-1.76.8-2.69,3.55-10.45,10.32-10.57,10.32-10.57l.09-.47c.33.07.63.1.89.11.97.02,1.97-.14,2.98-.45Z"/><path class="cls-10" d="M261.38,83.35c1.22,4.37,1.65,5.85,1.53,8.54-.11,2.37-.59,4.61-1.36,6.7-12.78,18.3-30.27,9.74-30.27,9.74-.22,1.1-2.96,17.19-2.55,31.11l-2.97.12c-.57-13.85-1.14-27.69-1.71-41.54-1.4-10.54-4.99-22.39-13.17-32.89l-1.93-2.34-.04-.05v-.02c.29.26.55.36.76.27,1.37.63,2.8,1.09,4.27,1.37,2.43.46,4.92.43,7.38-.05l.04.24c8.96,22.46,10.56,32.62,9.63,37.31-.08.41-.37,1.78.3,3.11,2.17,4.25,12.63,4.95,19.64,1.37.24-.12.48-.25.71-.38,6.92-3.96,10.56-12.86,9.74-22.61Z"/><path class="cls-17" d="M261.38,83.35c.82,9.75-2.82,18.65-9.74,22.61-.23.13-.47.26-.71.38l-.02-.04c-1.22.45-4.43,1.44-8.29.41-.49-.13-3.51-.96-5.48-2.93-3.45-3.46-.14-8.26-1.51-18.02-.24-1.74-.74-3.63-1.74-7.4-1.78-6.69-3.75-12.32-5.45-16.69l-.03-.05c3.42-1.98,6.48-4.88,8.75-8.49,1.8-2.86,3.12-6.18,3.74-9.86l.29-1.08c3.01-1.5,5.04-1.33,6.27-.97,6.53,1.87,6.06,13.31,13.31,39.92.22.81.42,1.53.61,2.19v.02Z"/><path class="cls-17" d="M259.05,147.96l-.09.47s-6.77.12-10.32,10.57c-.31.93-.58,1.82-.8,2.69l-.91-.14c-1.31-1.4-2.34-1.81-4.43-2.35-3.38-.86-5.7.72-6.78.26-4.97-2.1-6.7-10.56-6.99-20.02-.41-13.92,2.33-30.01,2.55-31.11,0,0,17.49,8.56,30.27-9.74-.87,2.43-2.11,4.67-3.55,6.71l-.42-.29c-1.64,1.84-6.25,6.5-13.74,7.98-4.03.8-7.46.4-9.67-.06-2.72,13.75-2.34,24.25-1.54,31.09.41,3.55,1.22,8.53,3.96,9.37,2.45.76,4.73-2.28,12.28-4.97,2.14-.76,3.96-.54,4.08-1.25.16-.94-4.35-1.06-6.98-4.18-.68-.8-1.37-1.97-2.04-6.3-1.05-6.83-2.25-14.6,2.25-19.64.58-.65,1.13-1.11,1.42-1.34-.98,2.24-2.52,6.59-2.23,12.19.14,2.72-.39,8.7,3.09,13.49,2.36,3.25,7.72,6,10.59,6.57Z"/><path class="cls-16" d="M257.58,105.01l.42.29c-3.18,4.54-7.3,8.07-10.4,10.41-.29.23-.84.69-1.42,1.34-4.5,5.04-3.3,12.81-2.25,19.64.67,4.33,1.36,5.5,2.04,6.3,2.63,3.12,7.14,3.24,6.98,4.18-.12.71-1.94.49-4.08,1.25-7.55,2.69-9.83,5.73-12.28,4.97-2.74-.84-3.55-5.82-3.96-9.37-.8-6.84-1.18-17.34,1.54-31.09,2.21.46,5.64.86,9.67.06,7.49-1.48,12.1-6.14,13.74-7.98Z"/><path class="cls-10" d="M250.91,106.3l.02.04c-7.01,3.58-17.47,2.88-19.64-1.37-.67-1.33-.38-2.7-.3-3.11.93-4.69-.67-14.85-9.63-37.31l-.04-.24c2.44-.47,4.85-1.38,7.09-2.69l.03.05c1.7,4.37,3.67,10,5.45,16.69,1,3.77,1.5,5.66,1.74,7.4,1.37,9.76-1.94,14.56,1.51,18.02,1.97,1.97,4.99,2.8,5.48,2.93,3.86,1.03,7.07.04,8.29-.41Z"/><path class="cls-10" d="M246.93,161.55l.91.14c-2.71,10.6,1.21,16.71,2.74,18.59-5.75-1.33-11.04-2.69-12.76-3.34-3.88-1.45-7.45-3.02-10.71-4.64-.45-10.91-.9-21.83-1.35-32.74l2.97-.12c.29,9.46,2.02,17.92,6.99,20.02,1.08.46,3.4-1.12,6.78-.26,2.09.54,3.12.95,4.43,2.35Z"/><path class="cls-12" d="M231.02,12.06c12.19,8.74,10.37,28.32,10.17,30.13l-.29,1.08c-.62,3.68-1.94,7-3.74,9.86l-.27-.18c-.32.26-.58.62-.96.73-20.27,6.35-23.31-7.04-25.57-6.78-9.27-4.04-4.46,12.55-1.63,15.63-5.83-3.02-10.39-8.97-12.1-16.23-.3-1.64-.23-3.21-.44-4.69-.51-22.27,9.79-34.06,23.4-34.07h.02c4.3.78,8.31,2.3,11.41,4.52ZM237.04,40.37c1.68-13.57-10.95-16.45-10.95-16.45,0,0-12.17-5.22-13.86,11.48-1.69,16.71,11.55,17.4,11.87,17.55.31.16,11.26.99,12.94-12.58ZM237.87,27.89c-.08-.97-.83-8.98-7.83-13.48-4.82-3.1-9.78-2.71-11.32-2.52-2.22.47-5.58,1.5-8.84,3.95-11.89,8.93-8.74,31.15-8.85,28.85-.65-14.11,8.75-25.04,18.98-25.89,10.02-.83,17.25,8.3,17.86,9.09Z"/><path class="cls-13" d="M236.89,52.95l.27.18c-2.27,3.61-5.33,6.51-8.75,8.49-2.24,1.31-4.65,2.22-7.09,2.69-2.46.48-4.95.51-7.38.05-1.47-.28-2.9-.74-4.27-1.37-.32-.14-.63-.29-.94-.46-2.83-3.08-7.64-19.67,1.63-15.63,2.26-.26,5.3,13.13,25.57,6.78.38-.11.64-.47.96-.73Z"/><path class="cls-13" d="M230.04,14.41c7,4.5,7.75,12.51,7.83,13.48-.61-.79-7.84-9.92-17.86-9.09-10.23.85-19.63,11.78-18.98,25.89.11,2.3-3.04-19.92,8.85-28.85,3.26-2.45,6.62-3.48,8.84-3.95,1.54-.19,6.5-.58,11.32,2.52Z"/><path class="cls-17" d="M187.35,11.75l.22-.83c.25.06.52.12.8.17,3.11.58,5.72.14,8.13-.6-5.16,3.68-9.52,9.32-13.05,17.02l.83.08c-7.08,13.96-3.35,28.86,5.82,34.46.48.29.96.55,1.45.79l-.11.22c-6.04,5-11.68,20.84-13.08,24.69s-8.44,33.81-8.44,33.81c0,0-3.54,1.3-7.69,3.8l5.9-4.59s1.22-8.85-10.75-10.72c-8.34-1.3-15.27.08-21,2.94l-1-1.99c20.92-50.58,36.47-87.35,39.23-93.07.52-1.09,1.74-3.39,4.24-4.93,3.51-2.16,7.16-1.57,8.5-1.25Z"/><path class="cls-10" d="M187.57,10.92l-.22.83c-1.34-.32-4.99-.91-8.5,1.25-2.5,1.54-3.72,3.84-4.24,4.93-2.76,5.72-18.31,42.49-39.23,93.07l1,1.99c-14.54,7.27-21.32,24.08-23.54,30.87l-2.57-.8c2.8-8.87,5.6-17.48,8.39-25.77.85-2.5,1.69-4.96,2.53-7.4,20.05-58.11,39.86-98.78,58.2-101.28l.09-.48c3.71.72,5.05,2.05,8.09,2.79Z"/><path class="cls-10" d="M179.48,8.13l-.09.48c-18.34,2.5-38.15,43.17-58.2,101.28l-2.7-.93c2.89-9.96,5.24-20.21,9.36-35.8,0,0,22.92-59.46,39.48-64.17,6.57-1.87,11.81-.93,11.81-.93.12.02.23.04.34.07Z"/><path class="cls-16" d="M166.28,193.31c-3.38,1.7-7.51,2.52-12.44,2.05-.31-.03-.62-.06-.93-.1-16.05-2-16.12-14.56-16.12-14.78,0,0-1.95-33.31,29.84-28.54v-.2c1.76.62,2.79,1,2.79,1,0,0,9.74,9.27,8.67,21.17-.72,7.97-4.51,15.75-11.81,19.4Z"/><path class="cls-16" d="M173.5,280.3c4.17,2.6,2.98,14.28.19,20.16-1.28,2.7-3.34,5.1-5.99,7.18l-.07-.09c3.13-21.34-5.49-26.87-5.49-26.87l-3.16.66c-.58-1.11-6.86-13.43-7.2-25.19-.36-12.31,1.99-59.59,1.99-59.59l.07-1.2c4.93.47,9.06-.35,12.44-2.05-3.96,29.24-3.17,56.67.18,80.15.07.54-.42,2.37.58,3.91,1.5,2.32,4.6,1.78,6.46,2.93Z"/><path class="cls-13" d="M154.54,131.34c-3.48,3.63-5.98,8.22-5.23,13.71l-.22.68c-5.97-1.94-12.04-3.77-16.29-4.72-11.57-2.57-18.58,7.23-19.18,7.6l-1.64-1.83s.27-1.1.86-2.92c2.22-6.79,9-23.6,23.54-30.87,5.73-2.86,12.66-4.24,21-2.94,11.97,1.87,10.75,10.72,10.75,10.72l-5.9,4.59c-2.56,1.54-5.35,3.54-7.69,5.98Z"/><path class="cls-17" d="M166.64,151.74v.2c-31.8-4.77-29.85,28.54-29.85,28.54,0,.22.07,12.78,16.12,14.78.31.04.62.07.93.1l-.07,1.2s-2.35,47.28-1.99,59.59c.34,11.76,6.62,24.08,7.2,25.19l-14.05,2.93c-11.56-.13-9.1-90.33-9.1-90.33-26.63-21.48-22.21-45.33-22.21-45.33.6-.37,7.61-10.17,19.18-7.6,4.25.95,10.32,2.78,16.29,4.72,6.99,2.27,13.86,4.69,17.55,6.01Z"/><path class="cls-10" d="M118.49,108.96l2.7.93c-.84,2.44-1.68,4.9-2.53,7.4l-2.48-.84c.83-2.53,1.59-5,2.31-7.49Z"/></g><g id="vaaleat_채채riviivat"><path class="cls-11" d="M166.91,124.19l-.93-.82c.51-.61.88-1.3,1.07-2.06.19-.76.16-1.58.03-2.38-.28-1.61-1.07-3.16-2.06-4.52-1-1.37-2.24-2.55-3.7-3.37-1.46-.82-3.09-1.36-4.78-1.58-3.39-.47-6.89.02-10.23.94-3.35.92-6.6,2.27-9.69,3.9-6.22,3.21-11.71,7.75-15.75,13.45-2.03,2.83-3.74,5.9-5.09,9.12-.35.8-.67,1.61-.97,2.43-.16.41-.3.82-.44,1.23l-.32.95-.21.68c-.71,1.5-1.34,3.04-1.91,4.61.18-1.71.43-3.43.78-5.14l.1-.34.05-.17.27-.8c.55-1.67,1.21-3.31,1.93-4.92,1.46-3.21,3.23-6.28,5.34-9.12,4.19-5.71,9.91-10.2,16.18-13.38,3.13-1.6,6.42-2.94,9.85-3.83,3.42-.88,7.02-1.36,10.6-.81,1.78.29,3.54.88,5.12,1.81,1.57.95,2.92,2.25,3.97,3.72,1.05,1.47,1.89,3.14,2.21,5,.14.92.16,1.9-.07,2.84-.24.94-.72,1.82-1.34,2.56Z"/><path class="cls-11" d="M255.79,104.14l.94.81c-2.64,3.03-6.17,5.26-10.05,6.3-1.94.51-3.96.73-5.96.64-1-.06-2-.16-2.98-.37-.47-.08-1.03-.23-1.41-.33l-.71-.21c-1.56-.74-3.01-1.64-4.29-2.71,1.54.75,3.17,1.26,4.81,1.57l.76.22c.45.11.9.22,1.36.3.91.17,1.84.27,2.76.3,1.85.06,3.71-.16,5.5-.65,3.57-1,6.84-3.08,9.27-5.87Z"/><path class="cls-11" d="M178.37,2.83l-.46,4.96c-3.64-.34-7.3.08-10.51,1.49-3.23,1.39-5.91,3.76-7.98,6.77-.52.74-1.07,1.61-1.62,2.44l-1.64,2.5-3.27,5.01c-2.17,3.34-4.32,6.68-6.39,10.06-4.15,6.74-7.95,13.62-11.08,20.84-1.58,3.6-3.02,7.27-4.37,10.98-1.36,3.75-2.71,7.46-3.83,11.2-1.12,3.74-2.1,7.56-2.86,11.38-.77,3.82-1.24,7.65-1.49,11.55-.25,3.88-.3,8.09-1.27,12.28-.24,1.03-.5,2.07-.81,3.07l-.47,1.51-.49,1.43c-.65,1.9-1.32,3.8-2.01,5.7-.71,1.9-1.43,3.8-2.26,5.7-.81,1.89-1.81,3.87-3.01,5.65-1.19,1.77-2.29,3.27-3.29,4.92-1.02,1.63-1.96,3.34-2.89,5.05l-1.35,2.62c-.22.44-.36.78-.55,1.18l-.44,1.22-.35,1.27-.27,1.31-.19,1.33-.06.79c-.04.43-.06.86-.06,1.3,0,.43-.03.87.01,1.3-.35,3.01-.08,6.15.89,9.18.3.72.52,1.51.91,2.21l.54,1.09.64,1.04c.85,1.41,1.98,2.65,3.29,3.74-1.57-.76-3.08-1.78-4.33-3.06-1.33-1.22-2.42-2.68-3.4-4.23-.98-1.56-1.71-3.26-2.32-5.02-.58-1.77-.96-3.61-1.19-5.48l.02-1.56c0-.26.04-.52.05-.78l.05-.6c.03-.54.13-1.08.2-1.61.33-2.14.9-4.27,1.88-6.34.92-1.86,1.83-3.58,2.81-5.36.99-1.76,2.03-3.52,3.18-5.22l1.68-2.45c.52-.78,1.02-1.52,1.44-2.32,1.73-3.16,3.06-6.86,4.39-10.5.66-1.82,1.31-3.71,1.91-5.51.6-1.77,1.02-3.56,1.35-5.37.64-3.59.62-7.5.95-11.54.31-4.03.93-8.06,1.77-12,.85-3.94,1.85-7.81,3.06-11.65,1.21-3.84,2.56-7.55,3.93-11.27,1.36-3.74,2.87-7.44,4.5-11.1,3.24-7.32,7.14-14.34,11.33-21.08,2.09-3.38,4.22-6.71,6.38-10.01l3.24-4.95,1.62-2.47c.54-.81,1.07-1.65,1.7-2.53,2.45-3.5,5.95-6.56,10.04-8.27,4.08-1.75,8.55-2.2,12.78-1.81Z"/><path class="cls-11" d="M115.31,193.72l4.52-2.09c.99,2.33,1.72,4.83,1.84,7.37.12,2.52-.13,5.01-.65,7.34-1.03,4.67-2.74,8.87-3.9,13-.57,2.06-1.05,4.11-1.19,6.11-.05.5-.1,1.01-.07,1.5v1.34c.15.96.35,2.07.57,3.1.87,4.22,2.31,8.5,2.99,13.27.33,2.38.42,4.92-.04,7.46-.1.64-.29,1.23-.43,1.85l-.51,1.68c-.36,1.11-.64,2.24-1.12,3.32-1.65,4.41-3.91,8.49-6.3,12.36-2.39,3.88-4.92,7.58-7.23,11.32-.56.94-1.18,1.86-1.69,2.81l-.8,1.42-.4.71c-.06.11-.15.25-.19.34l-.08.15-1.22,2.47c-3.52,5.31-5.89,11.5-6.39,18.26-1.17-6.81-.35-14.25,2.19-20.96l.65-1.32.33-.66.2-.4.42-.74c.56-.99,1.1-2,1.68-2.96l1.76-2.88c2.39-3.78,4.87-7.41,7.1-11.11,2.23-3.7,4.21-7.47,5.65-11.4l.94-3.02c.32-1.02.53-1.89.65-2.84.25-1.86.12-3.85-.21-5.88-.66-4.07-2.04-8.29-2.95-12.8-.11-.57-.23-1.12-.32-1.7l-.14-.86-.09-.56v-.52s-.02-1.85-.02-1.85c0-.61.09-1.21.14-1.82.24-2.41.77-4.72,1.41-6.91,1.26-4.41,2.91-8.47,3.74-12.5.46-2.01.59-3.98.5-5.9-.08-1.93-.67-3.74-1.38-5.5Z"/></g><g id="_채채riviivat"><path class="cls-14" d="M125.77,72.37c.02-.06.03-.08.11-.14.51-.42,1.61-.87,2.22.7.01.03.04.16.04.22-.43,1.3-.84,2.6-1.24,3.91-1.77,5.82-3.24,11.73-4.41,17.69-1.17,5.96-1.99,12.05-3.34,18.09-1.3,6.07-3.38,11.98-5.9,17.62-1.25,2.83-2.61,5.6-4.01,8.34l-1.29,2.48s-2.01,3.24-3.62,5.38c-2.63,3.7-2.24,1.85-1.17-.74-.09.11.6-1.4,1.31-2.96.71-1.55,1.43-3.13,1.43-3.13l1.62-3.12c1.35-2.67,2.64-5.36,3.83-8.1,2.38-5.47,4.28-11.09,5.51-16.91,1.26-5.82,2.08-11.79,3.25-17.74,1.17-5.95,2.64-11.84,4.41-17.64.4-1.32.82-2.65,1.25-3.96Z"/><path class="cls-14" d="M117.35,184.96c.04.05.06.07.06.17.11.69-.14,1.8-1.78,1.5-.03,0-.15-.04-.19-.08-.83-.99-1.76-1.92-2.77-2.8-1.99-1.77-4.23-3.36-6.39-5.15-2.15-1.78-4.29-3.81-5.8-6.38-1.56-2.55-2.28-5.47-2.64-8.28-.18-1.42-.26-2.83-.31-4.22l-.03-1.34c0-.42,0-.84.02-1.27,0,0,.08-.99.38-2.33.29-1.33.94-3.01,1.9-4.12.78-.96,1.51-1.35,1.94-1.49.43-.15.58-.09.55.08-.06.34-.85,1.08-1.37,2.22.09-.1-.62,1.22-.8,2.8-.22,1.56-.13,3.24-.13,3.24,0,.38-.01.76,0,1.14l.04,1.45c.05,1.32.15,2.63.33,3.92.36,2.57,1.05,5.04,2.39,7.14,1.3,2.13,3.19,3.93,5.23,5.61,2.03,1.69,4.26,3.26,6.34,5.11,1.07.93,2.09,1.95,3.03,3.06Z"/><path class="cls-14" d="M149,154.86s-.07.04-.16.03c-.6-.04-1.84-.32-1.27-1.95.01-.03.07-.15.12-.2,1.23-.78,2.55-1.42,3.91-1.92,3.61-1.36,7.58-1.82,11.43-1.15,3.84.69,7.52,2.53,10.16,5.57,1.31,1.54,2.21,3.3,2.95,5.04.74,1.72,1.32,3.57,1.74,5.43.79,3.75.74,7.69-.14,11.41-.87,3.74-2.52,7.21-4.64,10.37-2.17,3.21-5.31,5.79-8.9,7.29-3.59,1.5-7.53,2-11.38,1.54l-1.11-.17-.63-.13c-.42-.08-.84-.19-1.26-.32,0,0-.24-.07-.64-.24-.4-.16-.94-.41-1.55-.74-1.21-.64-2.64-1.78-3.41-3.06-.67-1.08-.71-1.97-.62-2.41.08-.46.22-.55.34-.44.25.24.51,1.22,1.42,2.06-.02-.06.19.19.62.52.4.35,1.08.73,1.78,1.06,1.43.65,3.04.95,3.04.95.35.11.72.17,1.08.25.18.04.36.07.55.1l.65.1c.42.04.84.09,1.26.12,3.37.2,6.81-.43,9.83-1.91,3.03-1.47,5.57-3.83,7.36-6.71,1.87-2.93,3.26-6.12,3.94-9.48.34-1.68.51-3.38.5-5.09-.03-1.71-.26-3.4-.63-5.07-.21-.83-.42-1.66-.72-2.46-.26-.81-.6-1.63-.93-2.42-.69-1.57-1.51-3.04-2.59-4.23-2.21-2.41-5.37-3.96-8.66-4.51-3.31-.56-6.79-.13-9.95,1.05-1.22.45-2.38,1.02-3.48,1.71Z"/><path class="cls-14" d="M114.88,149.05s-.04.07-.13.1c-.54.23-1.78.56-2.02-1.16,0-.03,0-.17.02-.23.77-1.26,1.69-2.42,2.72-3.47,2.31-2.33,5.22-4.05,8.36-4.99,3.14-.97,6.59-.99,9.71-.34,3.15.63,6.05,1.6,9.01,2.45l6.86,2.02s3.56,1.31,6,2.43c4.17,1.78,2.29,1.8-.48,1.29.26.13-6.54-1.43-6.54-1.43l-6.99-2.06c-2.91-.83-5.79-1.79-8.63-2.31-2.84-.55-5.67-.47-8.37.38-2.69.83-5.19,2.32-7.17,4.32-.9.91-1.69,1.92-2.36,3.01Z"/><path class="cls-14" d="M150.91,139.18s0,0-.03.05c-.06.08-.1.18-.15.35-.03.15-.05.35-.09.56-.04.2-.12.42-.33.58-.21.15-.6.29-1.19.03-.04-.02-.23-.14-.3-.22-.35-.54-.45-1.12-.47-1.61-.01-.5.05-.95.16-1.37.22-.83.56-1.57,1.03-2.27,2.67-3.89,6.06-7.27,9.95-9.94.97-.67,1.97-1.29,3-1.87,1.03-.59,2.08-1.08,3.03-1.61.95-.53,1.82-1.09,2.52-1.77.69-.68,1.26-1.51,1.71-2.44.91-1.86,1.39-4.04,1.9-6.26.51-2.21,1-4.43,1.45-6.65.45-2.22.88-4.45,1.28-6.69l.45-2.61s.87-3.67,1.6-6.25c1.13-4.38,1.44-2.54,1.35.28.05-.14-.07,1.53-.22,3.24-.17,1.71-.34,3.45-.34,3.45l-.54,3.11c-.4,2.22-.83,4.43-1.28,6.64-.46,2.21-.94,4.41-1.45,6.6-.51,2.18-1.03,4.49-2.19,6.68-.58,1.09-1.35,2.13-2.31,2.99-.96.85-2.01,1.48-3.03,2.03-1.03.55-2.01,1.03-2.94,1.56-.94.54-1.86,1.12-2.75,1.74-3.56,2.48-6.67,5.6-9.12,9.17-.3.44-.54.97-.67,1.47-.14.49-.08.96,0,1.03Z"/><path class="cls-14" d="M114.87,185.26s-.05-.06-.05-.15c-.05-.58-.01-1.88,1.7-1.59.03,0,.17.05.22.09.99,1.12,1.84,2.38,2.45,3.73,1.12,2.34,1.62,4.87,1.81,7.36.19,2.5-.01,4.99-.4,7.43-.81,4.91-2.54,9.41-3.82,13.96-1.31,4.53-2.18,9.11-1.59,13.66.53,4.58,2.1,9.18,2.43,14.19.22,5.03-.93,10.04-3.05,14.48-2.08,4.46-4.78,8.5-7.45,12.47-2.68,3.97-5.37,7.89-7.78,11.96l-1.51,2.62s-.53.77-1.2,1.85c-.69,1.06-1.57,2.4-2.29,3.52-2.39,3.83-2.14,2.01-1.2-.67-.09.12.5-1.46,1.23-3.03.36-.79.71-1.58.98-2.18.29-.59.49-.98.49-.98l.6-1.05.3-.52.43-.75.93-1.52c2.47-4.05,5.16-7.93,7.77-11.82,2.58-3.89,5.16-7.79,6.92-11.99,1.75-4.17,2.75-8.69,2.28-13.14-.43-4.5-1.94-9.01-2.42-13.88-.51-4.94.54-9.82,1.87-14.35,1.31-4.56,2.96-8.97,3.65-13.44.35-2.24.5-4.51.33-6.74-.17-2.22-.63-4.42-1.57-6.37-.52-1.16-1.23-2.21-2.06-3.14Z"/><path class="cls-14" d="M163.29,194.99c.02-.06.03-.08.11-.14.53-.45,1.62-.83,2.21.72.01.03.04.15.03.21-.42,1.25-.74,2.53-1.01,3.84-1.19,6.11-1.06,12.54-1.14,18.93-.03,6.39.08,12.79.31,19.18.23,6.39.61,12.77,1.11,19.15.26,3.19.51,6.38.89,9.52l.2,1.56.17,1.19s.08.93.18,2.19c.11,1.26.29,2.84.43,4.16.31,2.21.32,2.94,0,2.79-.3-.15-.86-1.19-1.36-2.53,0,.15-.53-1.46-.97-3.15-.44-1.68-.8-3.42-.8-3.42l-.17-1.2-.3-2.43c-.35-3.16-.6-6.31-.85-9.46-.49-6.3-.84-12.61-1.07-18.93-.22-6.32-.32-12.64-.29-18.96.09-6.3-.05-12.68,1.19-19.08.28-1.39.63-2.78,1.08-4.14Z"/><path class="cls-14" d="M127.36,73.63c-.06,0-.08,0-.16-.06-.53-.36-1.35-1.27-.03-2.33.02-.02.14-.09.2-.1,1.4,0,2.8.06,4.19.13,5.04.31,10.05,1.08,14.93,2.36,2.44.62,4.85,1.38,7.22,2.25,1.19.42,2.35.91,3.52,1.38l1.19.52c.38.17.76.33,1.12.51,0,0,3.4,1.85,5.49,3.55,3.68,2.68,1.82,2.26-.74,1.16.11.11-1.38-.66-2.93-1.31-.77-.34-1.56-.67-2.15-.9-.59-.24-.99-.4-.99-.4l-2.35-1.03c-1.11-.45-2.23-.9-3.36-1.3-2.26-.81-4.55-1.53-6.88-2.12-4.65-1.2-9.42-1.93-14.21-2.22-1.35-.07-2.7-.12-4.06-.12Z"/><path class="cls-14" d="M129.78,69.12c-.02.06-.03.08-.11.13-.52.39-1.64.84-2.2-.76-.01-.03-.04-.16-.03-.22.47-1.3.94-2.6,1.44-3.89,4.73-12.42,10.5-24.45,17.24-35.91,1.7-2.86,3.42-5.7,5.23-8.49,1.79-2.78,3.69-5.64,6.24-8.06,1.28-1.19,2.73-2.27,4.37-3.04,1.63-.79,3.38-1.24,5.1-1.48l.57-.08.16-.02.31-.03.63-.07,1.25-.09s.97,0,2.26.07c1.26.07,2.86.17,4.2.25,2.22.06,2.94.12,2.75.42-.19.27-1.31.7-2.72.96.15.02-1.54.27-3.25.43-1.71.16-3.4.37-3.4.37-.38.03-.77.05-1.15.1l-.57.06-.14.02-.47.07c-.38.05-.76.12-1.13.2-3,.54-5.57,2.12-7.72,4.35-2.14,2.22-3.89,4.9-5.63,7.63-1.75,2.72-3.43,5.48-5.06,8.27-6.53,11.17-12.12,22.88-16.72,34.97-.5,1.28-.96,2.56-1.43,3.85Z"/><path class="cls-14" d="M195.24,43.52c.01-.06.02-.09.09-.16.46-.56,1.46-1.06,2.3.36.02.03.07.14.07.19-.2,1.25-.23,2.53-.12,3.8.48,4.98,3.26,9.74,7.39,12.62,4.12,2.95,9.41,4.17,14.49,3.77,5.08-.43,10.1-2.49,13.74-6.02,1.82-1.75,3.25-3.89,4.27-6.21l.32-.79c.08-.18.13-.36.2-.54.12-.36.26-.72.35-1.09,0,0,.32-.83.65-2.01.34-1.17.62-2.7.77-3.99.1-1.1.14-1.83.21-2.26.08-.43.18-.56.32-.47.26.19.67,1.33.84,2.78.02-.15.22,1.58.07,3.38-.07.89-.2,1.79-.32,2.47-.15.67-.24,1.12-.24,1.12l-.4,1.2-.23.59-.22.55-.44.95c-1.22,2.52-2.93,4.82-5.03,6.68-4.19,3.74-9.66,5.83-15.2,6.16-5.53.34-11.24-1.09-15.8-4.42-4.58-3.3-7.63-8.59-8.19-14.24-.13-1.47-.1-2.96.13-4.43Z"/><path class="cls-14" d="M243.33,43.94s-.06.02-.14-.02c-.26-.11-.64-.27-.91-.6-.25-.32-.42-.82.13-1.6.02-.03.13-.14.19-.17,1.59-.49,3.29-.42,4.82.1.91.31,1.77.78,2.51,1.4.75.62,1.38,1.43,1.82,2.25.89,1.67,1.22,3.36,1.62,4.91l2.39,9.45,4.77,18.9c.79,3.14,1.64,6.34,2.01,9.71.17,1.68.24,3.39.07,5.11-.19,1.71-.51,3.42-1.09,5.03-1.1,3.25-2.88,6.18-4.89,8.84l-.33.44-.1.12-.19.24-.39.49c-.26.33-.53.64-.79.95,0,0-.67.7-1.62,1.58-.95.88-2.19,1.95-3.26,2.76-3.57,2.82-2.67,1.15-.92-1.03-.12.08.97-1.18,2.03-2.49,1.07-1.31,2.09-2.68,2.09-2.68.26-.29.5-.6.74-.9l.36-.45.09-.11.12-.15.17-.23.69-.93c1.8-2.51,3.29-5.23,4.14-8.12.39-1.45.68-2.93.75-4.43.08-1.5-.03-3.03-.22-4.55-.41-3.06-1.24-6.11-2.02-9.22l-4.69-18.59-2.35-9.29c-.4-1.56-.74-3.06-1.39-4.24-.63-1.17-1.65-1.98-2.91-2.41-1.07-.36-2.25-.39-3.29-.07Z"/><path class="cls-14" d="M210.5,66.24s-.05-.06-.05-.16c-.07-.63.08-1.87,1.73-1.56.03,0,.16.05.2.09.91,1.09,1.83,2.16,2.61,3.35,2.84,4.01,4.99,8.46,6.57,13.06,1.59,4.6,2.64,9.35,3.38,14.12,1.47,9.55,1.71,19.16,2.14,28.68l1.23,28.61.31,7.15c.12,2.36.17,4.82.34,7.09l.08.73.02.14.04.28c.03.19.06.37.1.55.07.36.16.71.27,1.04,0,0,.15.84.65,1.78.46.92,1.54,1.93,2.64,2.34.94.33,1.62.25,2.04.23.41-.05.58,0,.54.16-.05.15-.33.45-.85.69-.52.24-1.29.36-2.1.25.08.03-.37,0-1.05-.25-.67-.24-1.55-.71-2.27-1.41-.76-.69-1.28-1.6-1.59-2.25-.32-.67-.46-1.14-.46-1.14-.12-.43-.21-.86-.29-1.28l-.1-.64-.02-.16-.08-.75c-.06-.61-.09-1.22-.12-1.81l-.61-14.07-1.22-28.13c-.42-9.38-.7-18.74-2.15-27.92-1.44-9.12-4.14-18.19-9.44-25.65-.73-1.12-1.61-2.13-2.46-3.15Z"/><path class="cls-14" d="M246.72,114.87c.01-.06.02-.08.09-.15.45-.49,1.48-1.07,2.29.4.01.03.06.15.06.21-.25,1.33-.45,2.66-.61,4-.58,4.85-.6,9.76-.06,14.61.13,1.21.31,2.36.67,3.39.35,1.03.91,1.99,1.61,2.87.7.89,1.55,1.68,2.46,2.44l.51.4.46.35.95.69s.72.58,1.71,1.38c.96.78,2.19,1.66,3.32,2.07.96.33,1.64.28,2.06.26.41-.04.58.02.53.18-.06.15-.34.44-.87.66-.53.23-1.29.32-2.08.22.08.03-.36,0-1.02-.2-.66-.18-1.51-.54-2.3-.96-.81-.43-1.54-.88-2.11-1.21-.56-.35-.94-.58-.94-.58l-.99-.73c-.34-.26-.59-.45-1.15-.93-.98-.83-1.92-1.77-2.73-2.84-.81-1.07-1.47-2.31-1.88-3.62-.4-1.31-.57-2.6-.7-3.84-.54-4.96-.51-9.98.08-14.93.17-1.39.38-2.78.63-4.16Z"/><path class="cls-14" d="M234.76,176.33c-.06-.02-.08-.02-.14-.1-.43-.47-1.03-1.55.5-2.27.03-.01.16-.05.22-.05l2.04.52,2.01.6c5.77,1.77,11.27,4.05,16.93,5.53,2.82.72,5.68,1.33,8.54,1.42.72.08,1.43.04,2.14.02.71-.04,1.43,0,2.12-.13l1.24-.18c.38-.07.77-.07,1.14-.19,0,0,.88-.16,2.09-.38.15-.03.31-.05.47-.08.15-.05.31-.1.47-.14.32-.1.66-.19,1-.29.67-.21,1.4-.34,1.98-.62,4.09-1.72,2.94-.44.55,1.27.06-.05-.23.25-.81.51-.58.28-1.36.67-2.16,1.06-.81.38-1.69.6-2.33.83-.32.11-.6.2-.79.26-.19.06-.3.09-.3.09l-2.84.4c-1.52.06-3.06.18-4.57.02-1.53-.05-3.01-.32-4.5-.54-1.46-.32-2.95-.59-4.37-1.01-5.77-1.53-11.21-3.78-16.73-5.47l-1.95-.58-1.96-.49Z"/><path class="cls-14" d="M259.69,147.56c.07,0,.09,0,.18.07.31.2.65.54.7.95.06.41-.17.89-.76,1.38-.02.02-.12.08-.17.09-1.17,0-2.36.26-3.46.76-2.79,1.29-5,3.83-6.14,6.79-1.21,2.99-1.6,6.33-1.8,9.71-.04.75-.09,1.53-.11,2.25,0,0-.1.9-.11,2.1-.01,1.2.15,2.69.63,3.78.42.92.93,1.4,1.21,1.72.29.31.35.47.19.53-.15.03-.56.02-1.05-.24-.5-.24-1.1-.7-1.57-1.35.03.08-.24-.27-.56-.88-.32-.61-.63-1.5-.83-2.4-.39-1.81-.4-3.64-.4-3.64l.1-2.01c.21-3.47.6-7.07,1.97-10.5,1.34-3.43,3.93-6.51,7.42-8.12,1.4-.63,2.95-1,4.54-.98Z"/><path class="cls-14" d="M261.34,150.52c-.06.02-.08.03-.18,0-.67-.1-1.71-.64-.95-2.13.01-.03.09-.14.13-.17,1.23-.53,2.43-1.12,3.61-1.76.7-.38,1.39-.78,2.07-1.2.64-.39,1.26-.8,1.88-1.22,0,0,.8-.46,1.86-1.13,1.06-.66,2.37-1.56,3.46-2.31,1.81-1.32,2.44-1.66,2.46-1.31,0,.33-.65,1.32-1.6,2.39.13-.08-1.03,1.17-2.34,2.33-1.29,1.18-2.72,2.26-2.72,2.26-.56.37-1.13.75-1.7,1.1-.72.44-1.45.87-2.18,1.27-1.24.68-2.51,1.3-3.81,1.86Z"/><path class="cls-14" d="M277.98,138.87s-.05.05-.14.05c-.29.03-.73.02-1.11-.17-.36-.2-.68-.59-.52-1.5,0-.03.05-.18.09-.23,1.17-1.06,2.58-1.8,4.02-2.26,2.62-.83,5.34-.86,7.94-.48,1.3.2,2.58.53,3.83.95.62.23,1.24.46,1.84.76.31.13.6.29.9.45l.47.26c.1.04.28.16.34.24l.2.2c2,1.78,3.47,4.07,4.54,6.45,1.06,2.4,1.72,4.94,2.08,7.48.7,5.09.47,10.17.05,15.14l-.33,3.72-.17,1.85-.04.47c-.02.21-.04.42-.09.6-.08.38-.18.72-.3,1.04-.05.15-.13.37-.15.43l-.06.15-.12.3-.23.57-.44,1.1s-.14.31-.36.8c-.2.49-.46,1.16-.61,1.91h0c-.18.88-.12,1.9.22,2.77.08.24.18.46.29.64.1.19.2.37.28.53.19.31.36.54.46.73.21.38.21.56.05.57-.3,0-1.44-.56-2.33-1.9.05.07-.26-.24-.5-.91-.32-.63-.47-1.62-.47-2.59h0c.02-1,.24-1.95.42-2.64.2-.68.34-1.12.34-1.12l.45-1.12.21-.53.05-.13.05-.14.07-.19c.09-.26.17-.51.22-.74.09-.35.12-1.09.18-1.66l.17-1.82.32-3.63c.37-4.82.55-9.65-.18-14.31-.66-4.64-2.59-9.12-5.9-12.12-.03-.03,0,0-.03-.02l-.16-.09-.37-.2c-.24-.14-.5-.25-.76-.37-.51-.25-1.05-.43-1.58-.63-1.09-.36-2.21-.62-3.34-.8-2.26-.31-4.6-.26-6.68.41-1.17.38-2.24.96-3.11,1.74Z"/><path class="cls-14" d="M266.15,186.57c.09.03.12.04.21.13.33.3.55.83.39,1.21-.13.41-.64.63-1.17.98-.02.01-.1.07-.13.07-.68-.23-1.81.18-2.45.9-.79.87-1.14,2.35-1.25,3.91-.12,1.59-.2,3.3-.29,4.94l-.13,2.3s-.12.91-.3,2.21c-.09.61-.19,1.31-.3,2.04-.09.66-.09,1.27.08,1.74.14.37.43.65.68.81.26.17.49.22.68.24.38.03.56,0,.52.19-.03.16-.41.54-1.09.53-.66,0-1.48-.34-2.04-1.17.05.09-.28-.33-.47-1.07-.2-.74-.19-1.69-.2-2.52-.01-1.72-.02-3.45-.02-3.45l.11-1.97c.1-1.67.17-3.28.3-5.01.16-1.71.44-3.7,1.89-5.37.6-.66,1.34-1.16,2.18-1.47.83-.31,1.82-.43,2.8-.14Z"/><path class="cls-14" d="M261.38,209.17c-.06-.02-.08-.03-.13-.11-.39-.52-.79-1.63.84-2.17.03,0,.16-.04.22-.03l3.86,1.44c7.86,2.93,15.7,5.91,23.64,8.71l2.16.78s3.48,1.52,5.85,2.77c4.06,2.02,2.18,1.93-.55,1.27.26.15-6.44-1.81-6.44-1.81l-5.74-2.06c-2.21-.8-4.42-1.57-6.62-2.4l-13.21-4.93-3.87-1.45Z"/><path class="cls-14" d="M297.46,204.61s-.04-.01-.06-.08c-.08-.21-.25-.54-.37-.94-.05-.2-.07-.43.05-.67.12-.23.38-.51.92-.64.04,0,.22-.03.3,0,1.93.71,2.86,2.61,3.08,4.18.16,1.01.14,1.95.14,2.81v2.61s-.02,2.3-.02,2.3c0,0-.27,3.78-.65,6.44-.54,4.5-1.09,2.7-1.38-.09-.05.29-.45-6.68-.45-6.68v-1.97s.01-2.61.01-2.61c0-.88,0-1.69-.11-2.4-.1-.56-.25-1.06-.51-1.43-.26-.39-.62-.69-.96-.81Z"/><path class="cls-14" d="M305.44,201.39s-.06-.02-.11-.09c-.16-.23-.39-.59-.43-1-.03-.4.12-.92,1-1.25.03-.01.18-.04.25-.03,1.59.47,2.99,1.5,3.93,2.82,1.41,1.94,1.82,4.23,1.93,6.34.04.81.03,1.62,0,2.42,0,0-.11.98-.35,2.27-.25,1.27-.58,2.85-.91,4.15-1.02,4.42-1.37,2.57-1.36-.24-.04.14.02-1.53.1-3.24.1-1.7.06-3.37.06-3.37.03-.63.02-1.25,0-1.87-.09-1.86-.49-3.67-1.46-4.99-.65-.91-1.59-1.6-2.65-1.91Z"/><path class="cls-14" d="M298.22,222.83s-.03,0-.05-.08c-.16-.41-.14-1.33.6-2.25.01-.02.07-.08.09-.08.03,0,.52.15,1.27.24.75.1,1.77.1,2.76-.08,1-.17,1.95-.51,2.63-.84.68-.33,1.09-.61,1.09-.61,0,0,.31-.11.73-.3.42-.18.95-.44,1.42-.66,1.48-.9,1.55-.12.97.98.06-.03-.33.57-.83,1.11-.25.27-.52.53-.72.73-.22.18-.36.3-.36.3,0,0-.51.35-1.35.74-.83.4-2.01.81-3.23,1.01-1.22.21-2.48.22-3.43.09-.95-.11-1.57-.3-1.61-.31Z"/><path class="cls-14" d="M265.27,188.63c-.03-.06-.04-.08-.02-.19.05-.73.6-1.7,2.09-1.02.03.01.13.08.17.12.55,1.13,1.26,2.16,2.12,3.07,2.16,2.32,5.22,3.75,8.39,4.75,3.2.99,6.58,1.57,9.98,2.1l2.27.34s3.72.78,6.29,1.68c2.18.71,2.76,1.17,2.47,1.34-.29.18-1.44.11-2.82,0,.14.05-1.5-.15-3.19-.3-1.7-.15-3.43-.31-3.43-.31l-1.96-.3c-3.44-.53-6.92-1.12-10.34-2.18-3.39-1.07-6.86-2.64-9.46-5.42-1.03-1.09-1.89-2.34-2.55-3.69Z"/><path class="cls-14" d="M274.17,185.46c-.06-.02-.08-.02-.14-.1-.45-.5-.92-1.57.62-2.24.03-.01.15-.05.21-.04,1.28.38,2.59.68,3.9.94,3.55.67,7.19.94,10.8.74.75-.03,1.49-.09,2.23-.17,0,0,.23,0,.62-.02.38-.02.92-.05,1.56-.08,1.25-.09,2.83-.22,4.14-.37,2.22-.3,2.94-.28,2.79.03-.16.28-1.2.86-2.54,1.33.15,0-1.47.53-3.17.92-1.7.42-3.47.68-3.47.68-.67.07-1.35.12-2.02.15-3.81.21-7.65-.06-11.4-.77-1.38-.28-2.77-.59-4.12-.99Z"/><path class="cls-14" d="M272.99,190.04s0,.02-.05.05c-.32.18-1.15.63-2.27.49-.02,0-.1-.02-.11-.04,0-.02-.11-.47-.17-1.12-.07-.66-.09-1.53.02-2.39.1-.86.3-1.7.51-2.32.21-.61.39-1.01.39-1.01,0,0,.17-.24.44-.52.27-.28.64-.61,1-.81,1.16-.72,1.26.07,1.14.77.04-.01-.09.39-.18.8-.09.41-.15.82-.15.82,0,0-.54,1.23-.67,2.57-.07.67-.06,1.34,0,1.84.05.5.13.84.13.86Z"/><path class="cls-14" d="M262.8,184.54s0,0-.02-.06c-.04-.35-.28-1.25-.05-2.33,0-.02.03-.09.04-.1.02,0,.35-.01.83.07.48.07,1.08.27,1.61.57.54.3,1,.69,1.31,1.03.31.34.47.6.47.6,0,0,.07.2.09.49.03.28.02.65-.09.94-.3.95-.95.61-1.31.41-.02.02-.19-.13-.38-.26-.19-.13-.38-.22-.38-.22,0,0-.08-.13-.25-.3-.16-.18-.41-.38-.69-.53-.28-.15-.58-.25-.8-.28-.22-.04-.37-.03-.38-.03Z"/><path class="cls-14" d="M269.94,212.93s0-.04.08-.06c.4-.17,1.35-.3,2.28.49.02.01.08.08.08.1,0,.02-.04.18-.1.46-.06.27-.13.65-.2,1.09-.13.88-.17,1.98.18,2.87.17.45.48.95.79,1.51.32.55.61,1.22.75,1.78.15.56.21,1.01.24,1.32.04.31.04.48.04.48,0,0-.03.46-.13,1.03-.1.58-.24,1.26-.38,1.82-.17.95-.32,1.3-.59,1.26-.25-.04-.59-.54-.78-1.18-.02.07-.2-.71-.32-1.45-.12-.75-.28-1.43-.28-1.43,0,0-.02-.59-.22-1.3-.1-.35-.26-.72-.54-1.21-.27-.49-.64-1.07-.92-1.82-.56-1.51-.44-3.04-.29-4.05.15-1.04.32-1.67.32-1.71Z"/><path class="cls-14" d="M276.81,214.85s.02-.03.09-.02c.22,0,.55.08.88.31.34.22.67.6,1.04,1,.01.01.06.07.06.08,0,.02-.16.21-.24.61-.09.39-.01.99.27,1.37.11.17.42.43.81.84.41.43.7,1.05.8,1.5.11.47.13.83.13,1.07,0,.24,0,.36,0,.36,0,0-.07.34-.22.72-.14.39-.34.82-.53,1.18-.25.6-.43.87-.69.85-.25-.01-.54-.38-.69-.87-.03.05-.14-.53-.2-1.06-.06-.54-.15-.97-.15-.97,0,0,0-.09,0-.23,0-.14-.02-.32-.07-.48-.06-.17-.09-.26-.26-.46-.17-.2-.59-.51-.98-1.07-.74-1.06-.85-2.34-.66-3.25.09-.46.23-.83.37-1.09.13-.26.23-.4.24-.42Z"/><path class="cls-14" d="M271.93,225.17s0-.03.07-.04c.38-.14,1.31-.14,2.29.41.02,0,.08.05.09.07-.06.33-.08.65-.05.85.04.23.05.16.04.17-.05-.01.1.05.38.04.28,0,.56-.05.84-.11.55-.14,1.09-.39,1.55-.74,0,0,.84-.32,1.53-.73.53-.36.84-.48,1.04-.31.19.16.24.59.1,1.07.05-.03-.15.52-.49,1.04-.33.52-.78.97-.78.97-.72.53-1.55.91-2.43,1.13-.44.1-.9.16-1.36.17-.45,0-1.08-.02-1.75-.43-.35-.23-.64-.54-.83-.91-.19-.36-.27-.7-.32-1.01-.08-.62-.02-1.14.06-1.62Z"/><path class="cls-14" d="M286.87,219.61s0-.03.06-.07c.35-.24,1.24-.59,2.33-.08.02,0,.09.05.1.08,0,.07.06,2.55.12,5.02,0,.37-.04.8-.19,1.26-.15.47-.43.9-.73,1.21-.62.63-1.21.89-1.61,1.11-.84.42-1.1.64-1.1.64,0,0-.23.08-.46.26-.25.18-.52.66-.69,1.17-.24.87-.42,1.23-.68,1.15-.25-.07-.54-.52-.69-1.18,0,.07-.22-.71.02-1.7.11-.49.4-.98.66-1.29.25-.31.44-.46.44-.46,0,0,.16-.12.44-.29.27-.17.65-.36,1.02-.56.37-.19.74-.41.89-.6.07-.1.12-.16.15-.28.03-.12.06-.31.06-.56-.06-2.39-.12-4.79-.13-4.86Z"/><path class="cls-14" d="M293.53,222.05s0-.02.05-.05c.33-.16,1.17-.66,2.3-.35.02,0,.1.04.11.06,0,.03.11.63.05,1.5-.05.87-.3,2.01-.83,3.02-.52,1.03-1.32,1.9-1.99,2.42-.68.53-1.19.77-1.19.77,0,0-.36.12-.85.2-.49.08-1.12.08-1.62-.03-.84-.15-1.05-.46-.97-.69.08-.24.42-.46.79-.67-.05-.02.41-.21.82-.47.42-.25.77-.57.77-.57,0,0,.35-.17.78-.53.45-.35.95-.92,1.29-1.6.35-.68.52-1.45.54-2.02.04-.58-.04-.97-.04-.99Z"/><path class="cls-14" d="M290.31,228.17s.04,0,.07.07c.11.21.16.55.04.94-.1.39-.38.83-.51,1.34,0,.02-.02.09-.02.1.01-.01-.12,0-.21.09-.1.09-.11.16-.1.14.12.63.09,1.33-.31,1.83-.24.3-.55.51-.93.63-.19.06-.39.11-.59.15l-.39.08c-.46.09-1,.16-1.59.1,0,0-.36-.08-.82-.37-.44-.28-.86-.79-.98-1.31-.13-.42-.03-.72.07-.86.12-.14.24-.17.37-.14.24.06.48.19.7.24,0-.03.23.08.48.08.23,0,.46-.1.48-.09.22.02.52-.01.85-.08l.18-.04v-.03c-.06-.92.39-1.71.96-2.2.57-.49,1.36-.81,2.25-.66Z"/><path class="cls-14" d="M117.76,252.33s-.03-.03-.03-.08c-.06-.34.07-.9.89-.75.01,0,.08.02.1.04.2.25.41.5.65.73.22.24.46.46.71.67,2.33,2.02,5.41,3.04,8.5,3.57,3.11.49,6.33.53,9.5.32,3.18-.21,6.34-.73,9.42-1.54,1.54-.39,3.06-.88,4.56-1.42l.74-.27c.19-.07.37-.14.56-.22,0,0,1.71-.55,3.05-.98,2.13-.74,1.46-.11.25.64.08-.01-.67.39-1.43.78-.78.38-1.57.76-1.57.76l-1.72.64c-1.52.52-3.05.99-4.61,1.38-3.11.78-6.3,1.28-9.5,1.48-3.2.18-6.43.16-9.63-.38-3.17-.56-6.4-1.63-8.94-3.83-.28-.23-.54-.48-.79-.74-.26-.25-.5-.52-.73-.81Z"/><path class="cls-14" d="M262.43,150.95s.05,0,.1.03c.17.09.35.26.38.46.04.2-.08.44-.35.7,0,.01-.06.05-.08.06-.55.02-1.11.22-1.64.55-.84.51-1.58,1.25-2.33,2.03-.75.78-1.48,1.55-2.12,2.37-1.28,1.64-2.09,3.59-2.58,5.64-.49,2.05-.67,4.19-.75,6.33-.04,1.07-.04,2.13.06,3.17l.05.39.04.29c.03.19.06.38.1.57,0,0,.05.45.18,1.03.13.59.38,1.3.69,1.86.26.47.49.75.6.94.11.19.12.27.03.28-.16.01-.71-.28-1.21-.85.03.08-.56-.61-.94-1.45-.4-.83-.61-1.73-.61-1.73l-.1-.62c-.03-.23-.05-.28-.1-.98-.09-1.1-.06-2.2-.02-3.27.09-2.15.29-4.33.82-6.47.52-2.13,1.43-4.23,2.82-5.98.68-.87,1.44-1.66,2.18-2.43.75-.77,1.53-1.57,2.54-2.19.64-.39,1.41-.7,2.24-.73Z"/><path class="cls-14" d="M291.04,163.61s0,.04-.02.09c-.14.31-.55.7-1.16.1-.01-.01-.05-.06-.06-.09l-.11-.97c-.04-.32-.15-.63-.22-.94-.47-1.78-1.51-3.37-2.99-4.45-1.47-1.1-3.32-1.65-5.19-1.87-3.76-.42-7.66.45-11.11,2.09-3.43,1.65-6.59,4.12-8.41,7.44-.91,1.64-1.46,3.48-1.55,5.34l-.04.52c-.01.1,0,.19,0,.29l.04.58s0,.11,0,.3c0,.19-.04.46,0,.76.09.61.07,1.41.22,2.04.42,2.19-.09,1.48-.67.15,0,.04-.07-.14-.19-.44-.09-.3-.2-.72-.31-1.15-.05-.22-.11-.43-.16-.64-.04-.21-.05-.4-.08-.57-.04-.34-.07-.56-.07-.56l-.04-.62c0-.1.01-.21.01-.31l.08-1.15c.22-2.02.93-3.97,1.98-5.68,2.12-3.45,5.42-5.98,9.01-7.6,3.6-1.61,7.61-2.51,11.62-2.01,1.99.25,3.99.9,5.65,2.15,1.67,1.23,2.86,3.09,3.37,5.07.08.35.21.7.25,1.06l.12,1.08Z"/><path class="cls-14" d="M221.74,87.54s-.04-.05-.04-.11c-.04-.22.04-.49.21-.59.18-.12.44-.07.77-.03.01,0,.06.01.07.02.2.31.79.52,1.39.59,3.26.16,6.72-.22,9.97-1.03,1.64-.4,3.25-.92,4.81-1.54.78-.31,1.55-.65,2.32-1.01l1.13-.57s.41-.18,1-.45c.58-.25,1.29-.61,1.91-.87,2.01-1.01,1.43-.3.33.6.07-.02-.62.47-1.33.96-.37.23-.74.47-1.01.65-.28.18-.47.28-.47.28l-.54.27c-.2.1-.28.15-.76.37-.77.37-1.57.7-2.36,1.02-1.6.62-3.24,1.13-4.9,1.53-3.35.8-6.72,1.19-10.25,1.02-.73-.11-1.62-.27-2.25-1.1Z"/><path class="cls-14" d="M237.13,59.79s-.04.01-.09,0c-.32-.08-.83-.4-.36-1.11,0-.01.05-.06.08-.08l1.95-.63c2.56-.85,5.1-1.78,7.6-2.79l1.06-.43s1.79-.61,3.07-.98c2.16-.68,1.46-.06.24.65.07-.02-.67.38-1.43.77-.78.39-1.55.77-1.55.77l-.92.38c-2.53,1.02-5.09,1.96-7.68,2.82l-1.97.64Z"/><path class="cls-14" d="M226.3,22.75s.04.05.05.11c.07.21.03.49-.13.62-.16.15-.42.12-.76.14-.01,0-.06,0-.07,0-.27-.29-.87-.47-1.49-.5-3.01-.22-6.12.97-8.22,3.15-2.13,2.18-3.11,5.28-3.4,8.37-.16,1.56-.16,3.14-.08,4.71.08,1.57.28,3.12.74,4.58.9,2.91,3.04,5.4,5.73,6.84,2.68,1.48,5.93,1.76,8.85.84,2.92-.89,5.49-2.9,6.93-5.61,1.5-2.69,1.93-5.88,1.9-9v-.58s-.01-.15-.01-.15v-.3s-.04-.6-.04-.6c0,0,0-1.85.02-3.2-.04-2.26.36-1.42.69-.04,0-.07.17.75.3,1.6.14.85.24,1.73.24,1.73l.03.61v.3s.02.56.02.56c0,.4,0,.8-.01,1.21-.09,3.2-.72,6.54-2.56,9.33-1.79,2.81-4.74,4.78-7.95,5.55-3.21.81-6.76.26-9.57-1.49-2.83-1.71-5.02-4.49-5.89-7.7-.44-1.59-.61-3.22-.67-4.82-.06-1.6-.04-3.21.14-4.82.35-3.19,1.44-6.51,3.83-8.9,2.36-2.36,5.74-3.64,9.08-3.4.73.07,1.59.18,2.3.89Z"/><path class="cls-14" d="M183.19,9.5s-.01,0-.04-.06c-.04-.18-.25-.44-.6-.68-.16-.13-.32-.29-.37-.56-.05-.26.07-.7.63-1.07.04-.03.23-.11.34-.13,1.19.04,1.87.48,2.5.76.56.25,1.09.47,1.69.59,2.43.58,5.18.09,7.93-.46,1.38-.28,2.81-.58,4.27-.78,1.45-.2,2.91-.33,4.36-.4,2.91-.14,5.8-.06,8.66.09,2.85.18,5.71.28,8.65.79,5.85,1.07,11.41,4,15.36,8.54,1.97,2.26,3.52,4.92,4.46,7.77l.09.27.06.21.05.15.09.31c.06.21.13.41.17.62.1.42.21.83.29,1.25,0,0,.15,1,.17,2.34.03,1.35-.14,3.04-.5,4.38-.27,1.14-.57,1.84-.8,2.22-.22.38-.37.45-.46.31-.18-.29-.1-1.43-.1-2.77-.05.14.05-1.47-.16-3.09-.18-1.62-.65-3.2-.65-3.2-.09-.36-.17-.73-.27-1.09l-.16-.54-.04-.13-.05-.16c-.02-.08-.05-.16-.08-.23l-.33-.93c-.96-2.46-2.4-4.72-4.21-6.65-3.63-3.86-8.66-6.39-13.92-7.21-2.64-.41-5.46-.52-8.23-.69-2.77-.14-5.53-.2-8.26-.06-1.36.07-2.72.2-4.06.4-1.33.19-2.68.48-4.06.75-1.38.28-2.8.54-4.28.67-1.47.13-3.02.11-4.56-.25-.75-.16-1.5-.45-2.2-.77-.6-.31-1.18-.53-1.39-.51Z"/><path class="cls-14" d="M180.27,86.55c-.01.06-.02.08-.09.14-.46.43-1.52,1.05-2.28-.47-.01-.03-.06-.16-.06-.22.31-1.38.67-2.74,1.11-4.08.58-1.82,1.26-3.61,2.04-5.36.32-.72.65-1.43,1.01-2.13,0,0,.49-.84,1.22-1.93.74-1.08,1.73-2.4,2.65-3.4,1.52-1.73,2.17-2.06,2.21-1.74.05.34-.47,1.37-1.12,2.58.11-.1-.73,1.32-1.47,2.82-.76,1.49-1.41,3.06-1.41,3.06-.28.58-.56,1.15-.82,1.74-.74,1.66-1.39,3.36-1.94,5.1-.41,1.28-.75,2.57-1.05,3.88Z"/><path class="cls-14" d="M189.81,63.55c-.05-.05-.08-.06-.11-.17-.13-.35-.17-.85.07-1.2.23-.36.71-.53,1.46-.56.03,0,.15,0,.19.03.84.72,1.96,1.18,3.14,1.4l.18.04c.66.11,1.36.14,2.06.12,0,0,.87.05,2.1-.02,1.23-.05,2.84-.26,4.17-.34,4.5-.4,2.88.5.19,1.37.14-.01-1.46.48-3.15.9-.85.2-1.74.37-2.43.46-.69.09-1.16.11-1.16.11-.72,0-1.44-.04-2.17-.16l-.23-.04c-1.52-.28-3.04-.88-4.3-1.95Z"/><path class="cls-14" d="M189.58,60.55s.06.05.07.14c.08.29.14.73-.02,1.12-.16.38-.53.73-1.43.7-.03,0-.17-.03-.23-.06-1.16-.97-2.12-2.12-2.96-3.33-1.1-1.62-1.95-3.36-2.65-5.12-.72-1.76-1.26-3.58-1.7-5.43-.44-1.85-.72-3.73-.88-5.62-.16-1.89-.18-3.79-.05-5.68.03-.79.14-1.58.22-2.36,0,0,.19-.96.52-2.24.36-1.27.88-2.85,1.48-4.07.95-2.1,1.49-2.6,1.61-2.3.16.32-.09,1.43-.32,2.79.06-.13-.32,1.46-.54,3.11-.25,1.64-.33,3.33-.33,3.33-.07.63-.14,1.26-.17,1.9-.12,1.77-.1,3.55.05,5.32.14,1.77.41,3.53.82,5.26.41,1.72.92,3.43,1.59,5.07.65,1.65,1.43,3.23,2.39,4.65.73,1.05,1.55,2.03,2.51,2.82Z"/><path class="cls-14" d="M301.45,200.92c-.06,0-.08,0-.17-.06-.57-.34-1.36-1.23-.08-2.33.02-.02.13-.09.19-.1,1.34-.03,2.65-.1,3.84-.39,1.25-.29,2.32-.81,3.19-1.63.87-.81,1.51-1.88,1.73-2.98.07-.3.09-.6.09-.89,0-.21,0-.15,0-.18,0-.03,0-.01,0-.02,0,0,.02-.01.01-.05.09,0-.23-.08-.48-.16-.26-.09-.56-.18-.88-.28-.64-.22-1.37-.51-2.08-.92-.7-.41-1.36-.97-1.8-1.58-.78-1.02-.89-1.9-.84-2.35.06-.46.2-.56.32-.46.24.22.59,1.19,1.56,1.91-.03-.06.21.17.66.43.44.26,1.13.54,1.89.71.38.09.77.17,1.16.23.42.07.82.14,1.16.19.65.08,1.08.35,1.31.62.23.27.29.47.29.47.3,1.4.19,1.97.06,2.81-.34,1.7-1.26,3.18-2.47,4.31-1.2,1.15-2.79,1.9-4.32,2.24-1.49.35-2.95.42-4.35.46Z"/><path class="cls-14" d="M298.17,198.8s.04.05.02.14c-.03.28-.09.69-.32,1.04-.23.33-.68.63-1.57.31-.03-.01-.17-.09-.22-.14-.9-1.39-1.3-3.11-1.11-4.75.04-.32.07-.58.07-.77,0-.25-.04-.3-.09-.4-.06-.08-.19-.21-.43-.33,0,0-.13-.09-.43-.24-.3-.15-.79-.33-1.46-.63-1.28-.59-2.71-1.65-3.6-2.74-.79-.9-1.13-1.6-1.28-2.02-.14-.43-.09-.59.07-.55.33.06,1.12.86,2.19,1.61-.09-.12,1.14.88,2.6,1.43.72.29,1.44.43,2.18.64.7.2,1.26.53,1.26.53.39.25.81.64,1.08,1.15.29.5.38,1.11.37,1.55,0,.42-.05.76-.08,1.04-.13,1.1.14,2.21.73,3.13Z"/><path class="cls-14" d="M293.59,191.05c.19.02.26.03.46.15.34.2.58.55.63.88.06.33-.08.62-.27.71-.19.1-.42.06-.66.07-.13.01-.25.07-.25.08-.04.02-.05.06-.02,0,0,0,.02-.06.02-.08,0-.02,0-.03,0-.04l.74-1.46c.81.72,1.85,1.21,2.98,1.44l.07.02c.65.13,1.33.19,2,.16,0,0,.83.07,2-.1,1.17-.14,2.66-.56,3.9-.99,2.08-.79,2.79-.97,2.71-.63-.08.32-.95,1.12-2.17,1.9.14-.05-1.31.88-3.04,1.51-.86.32-1.77.55-2.48.66-.71.12-1.2.13-1.2.13-.74,0-1.48-.06-2.21-.21l-.09-.02c-1.48-.31-2.95-.96-4.13-2.02l.62-2.15c.14-.02.28-.03.41-.02Z"/><path class="cls-14" d="M164,271.5c-.01-.05-.02-.07.02-.16h0s2.22-.79,2.22-.79c-.06.61-.51,1.62-2.14.88,0,0,0,0-.02,0h-.01s0,0,0,0h0s0,0,0,0h0s0,0,0,0l2.19-.77h0s.05.05.05.05c.03.03.06.07.08.1.42,1.42.62,2.78,1.04,3.89.3.77.68,1.45,1.22,2.06.54.62,1.18,1.12,1.96,1.71l2.27,1.7c.76.59,1.57,1.13,2.37,2,.38.38.79,1.15.94,1.65.18.55.3,1.06.39,1.56.18,1.01.28,1.99.34,2.97.13,1.96.14,3.89.1,5.82-.02.78-.05,1.56-.1,2.35,0,0,0,.06-.03.18-.02.13-.03.25-.09.51-.08.5-.31,1.15-.65,1.8-.69,1.3-1.8,2.5-2.62,3.5-1.34,1.71-1.55,2.39-1.78,2.1-.08-.14-.11-.53,0-1.06.1-.52.34-1.17.66-1.83-.13.11.78-1.42,1.48-2.82.34-.71.53-1.41.55-1.88.03-.5.02-1,.02-.98.04-.64.06-1.28.08-1.93.04-1.87.03-3.75-.09-5.59-.06-.92-.15-1.83-.31-2.69-.07-.43-.17-.85-.29-1.2-.06-.17-.12-.36-.19-.44-.04-.1-.14-.24-.26-.38-.48-.54-1.24-1.09-1.99-1.66l-2.3-1.71c-.73-.55-1.61-1.23-2.33-2.05-.73-.81-1.3-1.81-1.68-2.82-.54-1.47-.74-2.86-1.1-4.07Z"/><path class="cls-14" d="M171.74,301.68s.05-.06.14-.09c.59-.19,1.83-.33,1.87,1.38,0,.03-.01.17-.04.22-.86,1.15-1.83,2.21-2.85,3.22-3.04,2.99-6.67,5.3-10.51,7.01-3.85,1.71-7.9,2.84-12,3.58-8.21,1.46-16.58,1.39-24.78.45-4.11-.48-8.18-1.2-12.2-2.17-4.02-.98-8-2.17-11.85-3.81-1.92-.83-3.82-1.74-5.63-2.97-.9-.63-1.78-1.31-2.56-2.28-.38-.5-.75-1.09-.91-1.88-.03-.19-.06-.44-.07-.58v-.39s-.02-.78-.02-.78l.02-1.78.06-1.25s.11-.97.39-2.28c.27-1.3.76-2.93,1.39-4.17.51-1.06.96-1.67,1.25-2,.29-.33.44-.39.51-.23.14.34-.21,1.45-.48,2.75.07-.12-.34,1.42-.47,3.06-.15,1.63-.12,3.33-.12,3.33-.02.39-.04.77-.04,1.16v.58c-.01-.23-.03,1.52.02,2.07.04.41.58,1.14,1.24,1.7.67.58,1.45,1.12,2.26,1.6,1.65.97,3.43,1.79,5.25,2.52,3.65,1.46,7.47,2.56,11.33,3.45,3.86.89,7.79,1.55,11.73,1.97,7.88.85,15.89.83,23.64-.59,3.87-.72,7.66-1.82,11.21-3.42,3.55-1.59,6.85-3.73,9.6-6.43.93-.93,1.82-1.9,2.62-2.96Z"/></g></g><g id="human"><g id="Layer_17"><path class="cls-9" d="M371.69,74.59s.06-.05.15-.05c.59-.03,1.89.06,1.54,1.75,0,.03-.06.16-.1.21-1.13.98-2.41,1.72-3.68,2.4-4.75,2.37-9.8,3.27-14.46,4.85-2.33.78-4.57,1.71-6.51,3.04-1.95,1.29-3.51,3.05-4.7,5.09-1.2,2.04-2.03,4.33-2.71,6.69-.68,2.37-1.28,4.82-1.85,7.24-.56,2.43-1.07,4.88-1.52,7.33l-.46,2.64s-.87,3.66-1.56,6.24c-1.06,4.39-1.4,2.56-1.35-.26-.05.14.05-1.54.19-3.25.14-1.71.33-3.46.33-3.46l.58-3.23c.46-2.45.98-4.89,1.55-7.31.58-2.43,1.17-4.83,1.89-7.26.74-2.42,1.66-4.85,3.05-7.09,1.37-2.24,3.27-4.25,5.5-5.67,2.22-1.43,4.64-2.39,7.03-3.18,4.78-1.59,9.67-2.52,13.88-4.64,1.14-.61,2.27-1.26,3.21-2.09Z"/><path class="cls-9" d="M334.19,127.85s0,0,0,0c0,0,0-.02-.03-.1.04,0-.09-.17-.18-.23-.11-.08-.21-.13-.31-.21-.16-.06-.25-.22-.47-.52-.2-.26-.25-.76.31-1.22.04-.04.25-.16.35-.18.32-.04.66-.03,1,.06,1.15.3,2.29.6,3.44.84,2.39.52,4.82.9,7.26,1.15.75.07,1.5.14,2.25.18,0,0,.89.12,2.17.28,1.17.13,2.69.29,4.16.46,4.48.29,2.78.95-.04,1.38.15.02-1.54.2-3.27.28-1.73.09-3.51.06-3.51.06-.67-.04-1.34-.11-2-.17-2.53-.26-5.05-.64-7.54-1.18-1.2-.25-2.39-.55-3.56-.86,0,0,0,0-.04,0Z"/><path class="cls-9" d="M406.17,69.14c-.02-.07-.03-.1,0-.21.08-.37.34-.82.73-.97.4-.16.88,0,1.52.36.02.01.11.08.14.12.3,1.01,1.02,2.02,1.92,2.89,1.83,1.87,4.25,3.14,6.81,4.07,2.57.93,5.31,1.51,8.08,2.02,5.53.98,11.45,1.71,16.79,4.6,2.64,1.43,5.06,3.63,6.52,6.36,1.49,2.7,2.21,5.6,2.86,8.39.64,2.82,1.13,5.67,1.53,8.51l.35,2.75s.05.95.08,2.24c.03,1.29.03,2.91-.03,4.25-.1,4.54-.82,2.79-1.38.04-.01.15-.29-1.5-.58-3.18-.3-1.67-.6-3.38-.6-3.38l-.15-1.17-.3-2.19c-.4-2.74-.9-5.46-1.54-8.14-.64-2.68-1.39-5.29-2.75-7.49-1.32-2.2-3.36-3.86-5.7-5.08-2.34-1.22-4.96-2-7.63-2.61-2.67-.61-5.42-1.01-8.21-1.52-2.78-.51-5.59-1.12-8.34-2.12-2.72-1.01-5.44-2.42-7.59-4.6-1.06-1.04-2.05-2.31-2.55-3.94Z"/><path class="cls-8" d="M338.56,128.83c0-.06.01-.08.08-.15.42-.5,1.41-1.17,2.31.25.02.03.07.15.08.21l-.51,4.09-2.55,20.39-.29,2.28s-.72,3.72-1.43,6.31c-1.08,4.4-1.41,2.55-1.35-.26-.09.28.36-6.68.36-6.68l.24-1.96,2.54-20.39.51-4.09Z"/><path class="cls-9" d="M375.37,68.06s0-.04.06-.07c.34-.26,1.22-.66,2.32-.13.02,0,.09.06.11.08,0,.04.05.71.05,1.75,0,1.04-.1,2.52-.69,3.95-.28.7-.7,1.4-1.19,1.95-.48.55-.99.98-1.45,1.3-.46.33-.87.54-1.16.69-.3.13-.46.21-.46.21,0,0-.47.14-1.11.21-.64.07-1.45.05-2.09-.11-1.08-.23-1.32-.58-1.2-.8.13-.24.62-.4,1.16-.58-.06-.03.6-.17,1.21-.43.62-.25,1.17-.62,1.17-.62,0,0,.5-.2,1.14-.66.32-.23.66-.53.96-.89.3-.35.54-.78.74-1.26.39-.95.48-2.09.48-2.99,0-.9-.05-1.56-.05-1.59Z"/><path class="cls-5" d="M373.15,74.98c-4.41,17.1,18.24,27.39,38.44,0"/><path class="cls-9" d="M403.71,57.14c0-.06,0-.09.07-.17.38-.59,1.32-1.25,2.33.07.02.02.08.13.09.19-.04,1.3.03,2.6.23,3.88.03.26.07.52.13.78.13.71.3,1.42.51,2.11,0,0,.17.88.53,2.05.35,1.17.91,2.62,1.46,3.81.48.99.83,1.64.98,2.05.16.41.13.58-.04.56-.33-.03-1.26-.8-2.15-1.94.06.15-.99-1.24-1.82-2.83-.85-1.57-1.44-3.32-1.44-3.32-.18-.67-.35-1.34-.48-2.03-.06-.29-.11-.58-.15-.87-.22-1.43-.31-2.89-.26-4.34Z"/><path class="cls-9" d="M357.61,141.52c0,.06.01.08-.03.17-.26.58-1.02,1.54-2.29.42-.02-.02-.11-.12-.13-.18-.23-1.38-.43-2.77-.57-4.16-.58-5.27-.59-10.61-.04-15.88.08-.77.16-1.55.28-2.32,0,0,.18-.95.51-2.21.31-1.26.79-2.83,1.27-4.09,1.59-4.28,1.67-2.35,1.32.39.05-.14-.19,1.5-.39,3.18-.18,1.68-.3,3.39-.3,3.39-.1.64-.15,1.28-.23,1.93-.53,5.1-.51,10.26.04,15.36.14,1.34.33,2.68.56,4.02Z"/><path class="cls-9" d="M366.84,15.19c0-.06.01-.08.08-.15.41-.5,1.4-1.18,2.32.24.02.03.07.15.08.21l-.48,4.09c-.92,8.17-1.63,16.37-1.05,24.49.27,4.05.91,8.07,1.95,11.97.53,1.93,1.19,3.8,2.13,5.48l.23.41.15.24c.1.16.2.32.3.47.21.31.43.61.66.9,0,0,.47.73,1.27,1.59.79.88,1.96,1.82,3.07,2.42.95.49,1.63.71,2.02.89.4.17.51.3.38.42-.24.21-1.5.37-2.97-.05.14.09-1.63-.42-3.15-1.5-1.55-1.03-2.78-2.51-2.78-2.51-.26-.34-.51-.7-.74-1.06l-.34-.54-.25-.44c-.14-.23-.26-.48-.38-.72-.97-1.93-1.64-3.95-2.16-5.97-1.05-4.02-1.62-8.14-1.9-12.25-.56-8.24.18-16.44,1.08-24.52l.48-4.11Z"/><path class="cls-9" d="M376.75,69.49c-.06-.04-.09-.05-.14-.15-.18-.34-.3-.81-.14-1.19.16-.38.62-.66,1.35-.8.02,0,.14-.02.19,0,.95.57,2.11.81,3.33.83,2.3.01,4.69-.67,7.09-1.43.73-.23,1.44-.46,2.15-.7,0,0,3.57-.9,5.82-2.14.95-.53,1.55-.93,1.93-1.14.38-.21.55-.21.56-.04.02.33-.63,1.38-1.76,2.35.15-.06-1.23,1.07-2.81,1.91-1.57.86-3.24,1.51-3.24,1.51-.64.22-1.28.42-1.91.62-2.44.76-5.03,1.55-7.86,1.55-1.52-.02-3.15-.33-4.57-1.18Z"/><path class="cls-9" d="M370.02,12s-.04.07-.12.1c-.27.13-.7.26-1.11.17-.41-.09-.81-.4-.94-1.28,0-.03,0-.18.01-.24.75-1.31,1.72-2.47,2.79-3.49,2.91-2.75,6.5-4.44,10.13-5.61,3.64-1.17,7.5-1.84,11.4-1.6,3.89.22,7.8,1.46,11.03,3.75,1.62,1.15,3.06,2.56,4.22,4.21,1.14,1.66,1.95,3.51,2.49,5.39,1.07,3.78,1.22,7.58,1.51,11.25.26,3.71.46,7.49.13,11.3-.32,3.79-1.08,7.51-2.04,11.13l-.45,1.63-.34,1.18s-1.35,3.58-2.56,5.98c-1.94,4.1-1.88,2.22-1.28-.52-.07.13.35-1.49.76-3.14.39-1.65.8-3.33.8-3.33l.33-1.13.16-.57.52-1.98c.87-3.48,1.52-7,1.72-10.54.22-3.54,0-7.13-.28-10.75-.27-3.63-.49-7.22-1.56-10.49-.52-1.63-1.28-3.15-2.29-4.47-1.01-1.33-2.27-2.48-3.69-3.41-2.84-1.88-6.22-2.88-9.67-3.03-3.46-.16-6.96.46-10.3,1.56-3.34,1.09-6.54,2.67-9,4.99-.92.88-1.73,1.85-2.35,2.93Z"/><path class="cls-9" d="M374.27,53.71c2.31-.81,4.73-1.2,7.18-1.17,1.06.01,2.3-.04,3.33.25.83.24,1.66.78,2.26,1.39.22.22.36.35.34.66-.04.53-.53,1.09-.86,1.49-.64.78-1.42,1.44-2.28,1.97-1.7,1.04-3.71,1.5-5.69,1.3-.54-.06-1.1-.16-1.62-.34-.69-.23-1.02-.61-1.2-1.32-.4-1.51-.55-3.13-.81-4.67-.14-.81-2.32-.28-2.17.58s.29,1.72.44,2.57c.14.8.2,1.66.48,2.43.49,1.37,1.89,1.74,3.2,1.96,2.63.44,5.41,0,7.78-1.22,1.19-.61,2.3-1.38,3.23-2.35.69-.72,2.02-2.08,1.69-3.21-.24-.81-1.34-1.48-2.02-1.87-1.18-.69-2.42-.81-3.75-.89-3.57-.22-7.03.25-10.41,1.44-.34.12-.85.55-.56.94.3.41,1.08.19,1.45.06h0Z"/><path class="cls-9" d="M419.76,106.98c.03-.05.04-.07.14-.11.6-.31,1.76-.49,2.01,1.17,0,.03,0,.16-.01.21-.69,1.15-1.34,2.33-1.92,3.54-.7,1.43-1.34,2.89-1.9,4.37-.27.7-.5,1.41-.74,2.12,0,0-.08.21-.22.58-.15.36-.34.87-.55,1.46-.43,1.18-.93,2.68-1.33,3.94-.62,2.15-.91,2.81-1.14,2.55-.21-.26-.29-1.44-.2-2.86-.05.14.11-1.56.43-3.27.31-1.72.76-3.45.76-3.45.21-.64.43-1.28.67-1.91.59-1.57,1.25-3.1,1.99-4.6.62-1.27,1.3-2.5,2.02-3.71Z"/><path class="cls-9" d="M445.64,137.63c.02.07.03.1,0,.2-.09.36-.34.8-.72.96-.38.17-.9.05-1.53-.34-.02-.01-.12-.08-.14-.12-.29-1.06-.99-2.04-1.86-2.9-1.98-1.9-4.73-3.21-7.45-4.35-2.74-1.13-5.6-1.98-8.52-2.52-.73-.15-1.47-.25-2.21-.37,0,0-.22-.04-.61-.12-.38-.08-.91-.19-1.53-.29-1.23-.23-2.8-.45-4.11-.63-2.22-.24-2.93-.42-2.7-.69.22-.24,1.37-.54,2.79-.69-.15-.03,1.55-.16,3.3-.15,1.75.01,3.54.16,3.54.16.67.11,1.34.2,2,.34,3.08.58,6.1,1.47,9,2.66,1.46.59,2.86,1.26,4.26,2.01,1.4.78,2.76,1.68,3.98,2.85,1.08,1.06,2.07,2.38,2.52,3.99Z"/><path class="cls-9" d="M445.46,139.77s-.05.07-.15.09c-.64.24-1.79.24-1.83-1.43,0-.03.01-.16.04-.21.83-1.02,1.55-2.13,2.24-3.25,1.64-2.81,2.87-5.87,3.82-9.04.21-.72.42-1.44.61-2.17,0,0,1.07-3.22,2.02-6.08,1.36-4.31,1.57-2.46,1.33.35.05-.14-.15,1.53-.42,3.24-.26,1.71-.62,3.45-.62,3.45-.16.65-.36,1.29-.55,1.94-.99,3.3-2.28,6.56-4.05,9.59-.74,1.22-1.52,2.42-2.43,3.54Z"/><path class="cls-9" d="M416.83,126.74c.03-.05.04-.07.13-.12.56-.32,1.73-.62,2.09,1.03,0,.03.02.16,0,.22l-1.92,3.67c-2.76,5.17-5.71,10.24-8.82,15.2l-1.24,1.95s-2.27,3.06-4.08,5.05c-2.98,3.43-2.41,1.62-1.09-.84-.1.1.73-1.34,1.57-2.82.84-1.49,1.69-3,1.69-3l1.05-1.66c3.08-4.92,6-9.94,8.73-15.05l1.9-3.64Z"/><path class="cls-9" d="M421.51,167c-.05.03-.07.05-.17.04-.67.01-1.79-.33-1.28-1.94,0-.03.06-.15.11-.19,1.14-.72,2.24-1.5,3.33-2.29,5.13-3.8,9.69-8.37,13.42-13.55.44-.61.85-1.24,1.28-1.85,0,0,.56-.74,1.32-1.75.71-.99,1.62-2.25,2.44-3.39,2.44-3.77,2.19-1.97,1.18.71.09-.12-.57,1.45-1.37,2.99-.79,1.55-1.69,3.08-1.69,3.08-.38.55-.75,1.12-1.15,1.66-3.89,5.39-8.62,10.15-13.96,14.1-1.13.83-2.28,1.64-3.46,2.39Z"/><path class="cls-18" d="M399.46,156.09s.06-.06.16-.07c.65-.15,1.82-.04,1.66,1.63,0,.03-.03.16-.06.21-.96.95-1.91,1.94-2.85,2.93-3.41,3.6-6.75,7.29-10.01,11.05-1.62,1.88-3.22,3.78-4.78,5.7-.77.97-1.56,1.93-2.3,2.91l-.77,1.01c-.25.32-.49.64-.72.96,0,0-.6.7-1.43,1.68-.79.98-1.82,2.2-2.63,3.24-.35.44-.62.81-.83,1.11-.22.3-.41.53-.56.69-.31.32-.46.38-.53.22-.06-.15,0-.51.12-1.01.12-.5.34-1.14.65-1.77-.1.12.65-1.43,1.55-2.91.43-.76.91-1.49,1.26-2.05.35-.56.59-.93.59-.93l1.6-2.1c.75-.99,1.54-1.93,2.3-2.9,1.56-1.91,3.15-3.8,4.76-5.66,3.23-3.72,6.53-7.37,9.92-10.95.95-1,1.91-2,2.9-2.99Z"/><path class="cls-18" d="M389.55,199.97s-.06.06-.16.07c-.62.12-1.85.05-1.65-1.64,0-.03.04-.16.07-.21,1.01-.98,2.04-1.92,3.1-2.83,4.27-3.67,8.86-6.82,13.14-10.25,2.14-1.71,4.19-3.5,6.1-5.43.96-.96,1.87-1.96,2.74-2.99l.44-.52.37-.46.73-.93s.15-.17.4-.47c.26-.29.61-.7,1-1.19.8-.96,1.75-2.23,2.54-3.29,1.27-1.84,1.76-2.37,1.89-2.05.11.31-.17,1.46-.73,2.78.09-.12-.6,1.44-1.47,2.97-.86,1.52-1.87,3.01-1.87,3.01l-.76.96-.98,1.17c-.92,1.05-1.86,2.08-2.85,3.05-1.97,1.96-4.07,3.78-6.23,5.49-4.3,3.43-8.78,6.52-12.85,10.02-1.03.88-2.03,1.79-2.99,2.73Z"/><g id="Layer_20"><path class="cls-8" d="M334.57,165.63c0-.06,0-.08.07-.16.38-.53,1.33-1.26,2.33.11.02.02.08.14.09.2-.09,1.36-.14,2.72-.19,4.09-.23,7.23.03,14.48.82,21.68l.26,2.27s.21,3.76.29,6.43c.25,4.51-.6,2.86-1.37.14,0,.15-.4-1.49-.75-3.17-.37-1.68-.67-3.41-.67-3.41l-.23-1.98c-.8-7.31-1.07-14.68-.84-22.03.05-1.39.11-2.77.19-4.15Z"/><path class="cls-9" d="M378.48,220.01c-.06-.01-.08-.01-.15-.09-.49-.44-1.1-1.46.37-2.3.03-.02.15-.07.21-.07,1.35.22,2.69.46,4.04.64,7.69,1.13,15.46,1.64,23.24,1.69,3.89,0,7.78-.11,11.66-.35,1.94-.14,3.88-.28,5.81-.48l.78-.07.6-.06,1.2-.14s.93-.04,2.21-.09c1.27-.08,2.88-.11,4.21-.15,4.51-.21,2.86.62.13,1.37.15.01-1.49.38-3.18.72-.84.18-1.7.34-2.34.45-.64.12-1.08.19-1.08.19l-1.19.14-1.78.17c-1.93.2-3.86.33-5.8.46-3.87.24-7.75.33-11.63.32-7.75-.05-15.51-.58-23.19-1.71-1.37-.18-2.74-.42-4.11-.65Z"/><path class="cls-9" d="M353.36,212.39c0-.06.01-.08.08-.15.43-.5,1.44-1.13,2.31.31.02.03.07.15.07.21-.2,1.35-.38,2.69-.53,4.05-.59,5.29-.81,10.63-.66,15.95.02.76.05,1.52.09,2.27,0,0-.08,3.5-.14,6.42-.01,4.51-.77,2.82-1.38.06-.01.15-.31-1.51-.55-3.22-.24-1.71-.42-3.46-.42-3.46l-.07-1.99c-.16-5.44.07-10.89.67-16.3.15-1.38.33-2.76.54-4.14Z"/><path class="cls-9" d="M356.89,191.65c0,.06,0,.08-.07.16-.38.53-1.32,1.28-2.33-.07-.02-.02-.08-.14-.09-.2l.19-4.12c.28-6.32.56-12.64.74-18.95.09-3.16.16-6.31.18-9.46v-4.73s-.02-2.54-.02-2.54c0,0,.2-3.78.5-6.44.39-4.51,1-2.74,1.38.05.02-.15.19,1.52.33,3.23.13,1.71.27,3.45.27,3.45l.02,2.79v4.68c-.04,3.12-.11,6.24-.2,9.35-.18,6.23-.45,12.45-.73,18.67l-.19,4.12Z"/></g><path class="cls-18" d="M360.5,217.12s0,0,.04.05c.06.07.37.08.55.18.2.09.36.24.46.42.21.37.17.86-.14,1.57-.02.03-.21.17-.31.21-.59.12-.86.11-1.25.14-.33.02-.74.05-1.17.02-.84-.04-1.87-.28-2.68-1.05-.82-.79-1.08-1.79-1.21-2.58-.14-.91-.14-1.65-.2-2.42,0,0,.03-3.81.33-6.48.1-1.14.22-1.88.37-2.31.07-.2.16-.37.24-.4.04,0,.08,0,.1.03.01.01.02.02.03.04v.03s0,.01,0,.01h0s0,.01,0,.01h0s0,0,0,0h0s-.11-.1-.11-.1c.16.16.14.12.16.13.02.01.04-.01.05,0,.03.06.05.12.07.19.05.16.1.36.15.6.1.48.21,1.11.3,1.8.02-.15.19,1.51.39,3.2.2,1.71.4,3.42.4,3.42.04.66.07,1.32.15,1.84.09.57.27.99.48,1.18.2.2.58.34,1.1.37.25.02.53,0,.89-.02.3-.02.72-.05.8-.07Z"/><path class="cls-9" d="M386.34,198.93s0-.03.05-.07c.33-.24,1.16-.86,2.3-.34.02.01.1.06.11.09,0,.02.03.24.07.61,0,.37.05.89-.02,1.49-.09,1.22-.5,2.79-1.24,4.17-.72,1.4-1.71,2.59-2.53,3.39-.4.41-.77.71-1.03.92-.26.21-.41.33-.41.33,0,0-.44.24-1.04.53-.31.13-.66.26-1.02.39-.36.11-.74.2-1.07.26-2.27.41-1.58-.48-.56-1.26-.08,0,.58-.42,1.16-.93.3-.24.58-.51.79-.71.21-.2.35-.34.35-.34,0,0,.12-.1.33-.28.22-.17.51-.43.84-.77.66-.66,1.46-1.65,2.01-2.75.57-1.1.87-2.29.94-3.19.08-.91-.03-1.52-.04-1.55Z"/><path class="cls-18" d="M366.24,218.08s0,0,.04.05c.06.07.37.08.55.18.2.09.36.24.46.42.21.37.17.86-.14,1.57-.02.03-.21.17-.31.21-.59.12-.86.11-1.25.14-.33.02-.74.05-1.17.02-.84-.04-1.87-.28-2.68-1.05-.82-.79-1.08-1.79-1.21-2.58-.14-.91-.14-1.65-.2-2.42,0,0,.03-3.81.33-6.48.1-1.14.22-1.88.37-2.31.07-.2.16-.37.24-.4.04,0,.08,0,.1.03.01.01.02.02.03.04v.03s0,.01,0,.01h0s0,.01,0,.01h0s0,0,0,0h0s-.11-.1-.11-.1c.16.16.14.12.16.13.02.01.04-.01.05,0,.03.06.05.12.07.19.05.16.1.36.15.6.1.48.21,1.11.3,1.8.02-.15.19,1.51.39,3.2.2,1.71.4,3.42.4,3.42.04.66.07,1.32.15,1.84.09.57.27.99.48,1.18.2.2.58.34,1.1.37.25.02.53,0,.89-.02.3-.02.72-.05.8-.07Z"/><path class="cls-18" d="M366.2,208.49c0-.06,0-.08.05-.16.17-.28.47-.62.87-.72.18-.05.48-.04.61.06.35.1.54.29.84.62.02.02.1.14.11.19l.15,4.08c.06,1.5.1,3.05.18,4.51.05.68.21,1.22.42,1.44.21.25.67.47,1.14.47.12,0,.23,0,.34-.02h.02s.01,0,.01,0h0s0,0,0,0h0c-.11-.57.15.77.12.63h0s0-.04,0-.04l-.08-.47-.02-.12s0,0,0,0h0s.02,0,.03,0l.21-.08c.31-.13.65-.28.98-.44,0,0,3.13-1.27,5.93-2.41,2.07-.88,2.76-1.05,2.7-.71-.07.33-.94,1.13-2.1,1.95.14-.05-1.26.89-2.74,1.79-.74.45-1.49.9-2.06,1.22-.59.32-.98.54-.98.54-.32.15-.61.28-.99.43-.13.06-.56.18-.74.2-.23.03-.46.05-.69.04-1.06-.03-2.14-.42-2.95-1.33-.8-.96-.93-2.02-1.01-2.84-.09-1.59-.13-3.09-.19-4.64l-.16-4.16Z"/><path class="cls-18" d="M373.93,213.27s-.02.01-.07-.02c-.26-.16-.88-.6-.82-1.54,0-.02.02-.09.03-.1.03,0,.56-.31,1.39-.58.83-.28,1.98-.51,3.15-.49.58,0,1.15.06,1.7.16.56.11,1.15.31,1.63.7.49.38.74.94.81,1.27.08.35.08.53.08.53,0,0-.02.51-.24,1.02-.2.5-.58,1.14-1.11,1.47-.43.31-.84.3-1.01.22-.18-.09-.2-.19-.16-.28.11-.18.31-.34.44-.67-.04.02.18-.35.24-.85.09-.54-.03-.9-.03-.88-.02-.02.02-.24-.24-.42-.26-.24-1.27-.42-2.18-.42-.93,0-1.85.18-2.51.41-.67.22-1.09.46-1.11.47Z"/><path class="cls-18" d="M354.84,206.69s0,.01-.01.03c.01.08-.05-.07-.03-.03l.1.03h0s0,0,0,0h0s-.01,0-.01,0h-.03s-.06-.02-.06-.02l-.12-.03c-.08-.03-.17-.05-.23-.14-.12-.16-.03-.7.63-.77.04-.01.31.03.45.15.12.1.22.23.28.38l.19.43-.23.4c-1.33,2.3-3.36,3.97-5.39,5.36,0,0-1.1.52-1.95.71-1.4.41-1.14-.24-.53-.89-.05,0,.34-.34.73-.7.39-.36.78-.72.78-.72,1.9-1.31,3.65-2.81,4.74-4.7l.71.51s0,0,0,0Z"/><path class="cls-18" d="M347.83,212.47s0-.02.05-.03c.27-.08.98-.34,1.74.13.01,0,.06.05.07.07,0,.03-.03.55-.26,1.25-.22.71-.67,1.57-1.27,2.29-.6.73-1.32,1.31-1.9,1.68-.29.19-.54.33-.71.42-.18.09-.28.15-.28.15,0,0-.29.08-.69.16-.4.06-.91.1-1.32.05-1.39-.14-.86-.65-.21-1.01-.04-.02.37-.19.75-.42.38-.22.74-.49.74-.49,0,0,.33-.15.77-.45.44-.3,1-.76,1.44-1.3.45-.54.77-1.17.91-1.65.16-.49.17-.82.17-.84Z"/><path class="cls-18" d="M342.96,218.81s.02-.05.07-.08c.04-.03.1-.06.15-.09.03-.01.06-.03.09-.04h0s.41.11.41.11h.03s.06.02.06.02c.03,0,.06,0,.08,0,.04,0,.03-.02.02.01.02-.07,0-.02.02-.02,0,0-.02-.02-.04-.01,0,.01.01-.03,0-.06l-.02-.14h0s0,0,0,0h0s0,.02,0,.02v.03s.02.06.02.06c0,.04.01.08.02.12s0,.09,0,.13c-.01.02-.03.05-.09.06-.06.03-.24-.1-.24-.23,0-.21.02-.34.26-.45.13-.05.29-.02.38.01.12.04.26.18.31.32.1.29.06.43.11.46.03.07.06.14.08.23,0,.02.03.14.02.19-.43,1.16-1.17,2.11-2.04,2.88-.18.16-.36.3-.55.44-.51.38-1.05.71-1.62.99,0,0-.18.07-.48.19-.3.11-.75.25-1.31.34-.28.04-.58.06-.9.05-.28-.05-.57-.1-.88-.15-.61-.1-1.1-.26-1.59-.4-3.29-.87-1.89-1.09.21-1.01-.12-.04,1.21.09,2.28.05.5-.07,1.02-.29,1.41-.49.4-.2.65-.36.65-.36.39-.21.77-.44,1.12-.71.15-.11.3-.23.44-.36.68-.6,1.23-1.33,1.52-2.11Z"/><path class="cls-18" d="M347.28,201.32s.06-.06.16-.08c.64-.16,1.83-.09,1.7,1.58,0,.03-.03.16-.06.21-.93.98-1.84,1.98-2.7,3.01-.41.49-.81.99-1.2,1.5l-1.19,1.58-2.38,3.14h0s-1.19,1.87-1.19,1.87c0,0-.14.19-.36.51-.22.32-.53.77-.9,1.3-.73,1.04-1.67,2.34-2.5,3.39-2.72,3.62-2.31,1.83-1.15-.75-.1.11.64-1.4,1.41-2.94.39-.77.78-1.55,1.07-2.14.29-.59.51-.97.51-.97l1.08-1.69.03-.04,2.4-3.17,1.19-1.58c.41-.54.84-1.08,1.27-1.6.9-1.08,1.85-2.12,2.81-3.13Z"/><path class="cls-18" d="M349.1,203.09s-.05.06-.15.09c-.62.21-1.82.25-1.83-1.43,0-.03.02-.16.04-.21l1.3-1.61c.44-.55.93-1.13,1.52-1.66.24-.21.55-.41.83-.61.28-.17.53-.29.79-.44.53-.29,1.03-.5,1.55-.75,1.02-.45,2.05-.88,3.07-1.29,2.05-.81,4.1-1.58,6.14-2.36l2.15-.82s3.31-.98,6.15-1.82c2.11-.67,2.72-.95,2.72-.61-.02.15-.26.48-.66.83-.4.33-.95.72-1.56,1.07.15-.03-1.36.78-2.91,1.51-1.57.72-3.15,1.46-3.15,1.46l-1.85.7c-2.04.78-4.08,1.54-6.1,2.34-1,.4-2,.82-2.97,1.25-.46.23-.97.44-1.4.68-.21.12-.45.24-.64.36-.16.13-.32.21-.49.35-.84.76-1.67,1.93-2.55,2.98Z"/><path class="cls-18" d="M362.14,193.3s.06,0,.12.04c.41.26,1.01.93.04,1.75-.02.01-.1.07-.15.08-1.04,0-2.09,0-3.15-.05-1.77-.09-3.59-.31-5.35-.87-.86-.27-1.79-.69-2.51-1.08-.71-.38-1.29-.45-1.6-.26-.09.06-.12.08-.18.21-.06.12-.11.36-.16.62,0,0-.18.62-.28,1.5-.1.87-.05,1.99.2,2.89.23.75.49,1.22.62,1.51.14.29.13.42,0,.42-.24,0-1.05-.55-1.6-1.58.03.13-.63-1.12-.78-2.53-.19-1.39.05-2.81.05-2.81.06-.27.14-.6.32-.95.18-.36.51-.7.86-.89.63-.35,1.27-.4,1.87-.32.6.1,1.08.32,1.49.52.81.43,1.46.72,2.25.98,1.54.5,3.19.7,4.87.78,1,.05,2.02.05,3.04.04Z"/><path class="cls-9" d="M439.37,150.96c0-.06,0-.08.08-.15.41-.51,1.39-1.18,2.32.23.02.03.08.15.08.2-.14,1.36-.32,2.72-.43,4.08-.83,8.48-1.12,17.02-.96,25.54.1,4.26.31,8.52.65,12.77.16,2.13.37,4.25.59,6.37l.3,2.61s.2,3.77.23,6.44c.16,4.52-.65,2.85-1.37.12,0,.15-.38-1.49-.71-3.17-.35-1.68-.65-3.41-.65-3.41l-.14-1.19-.07-.6-.13-1.28c-.23-2.11-.41-4.22-.58-6.33-.32-4.23-.52-8.46-.61-12.7-.15-8.47.15-16.96.97-25.4.12-1.38.29-2.75.43-4.13Z"/><path class="cls-9" d="M440.97,220.17c0-.06,0-.08.04-.17.29-.58,1.11-1.47,2.31-.29.02.02.1.13.12.18.15,1.37.29,2.75.41,4.13.53,5.79.85,11.6.94,17.41.05,2.91.05,5.81-.01,8.72-.02,1.45-.08,2.91-.12,4.36l-.11,2.54s-.46,3.79-1.04,6.41c-.9,4.46-1.3,2.6-1.36-.19-.03.14-.04-1.53-.03-3.23-.01-1.7-.03-3.44-.03-3.44l.11-2.7c.05-1.41.09-2.83.11-4.24.05-2.83.06-5.66,0-8.48-.1-5.66-.42-11.31-.93-16.94-.12-1.36-.26-2.72-.41-4.08Z"/></g><g id="Layer_18"><path class="cls-9" d="M345.4,73.14c-11.48,13.1-30.96,17.97-47.41,12.6-15.14-4.6-36.4-18.31-26.07-36.42,14.32-24.74,66.1-24.44,77.98,2.47,1.64,4.07,1.84,8.7.43,12.74,0,0-.29-.08-.29-.08,1.92-8.29-2.79-16.48-9.46-21.19-16.01-11.48-41.83-11.89-58.47-1.5-5.12,3.29-9.69,7.96-11.24,13.98-4.56,19.35,25.15,28.88,40,29.49,12.42.56,24.93-4.18,34.3-12.29,0,0,.22.2.22.2h0Z"/><path class="cls-4" d="M350.18,64.49c1.42,5.87,7.25,3.74,13.77.34"/><path class="cls-4" d="M345.29,73.04c7.65,2.25,13.84-.57,18.65-8.2"/></g></g><g id="on_table"><path class="cls-11" d="M312.32,268.68c-3.53,1.66-7.26,2.87-10.98,4.05-13.49,4.33-26.57,9.78-40.05,14.11l-.11-.34c.51-.38.89-1.01.98-1.65.16-1.14-.3-2.26-.75-3.31l-.36-.79c12.77-5.8,26.55-9.07,40.22-12.29h0c6.1-1.43,9.34-2.1,13.73-3.11.35-.08.83-.27,1.05.01,1.69,2.19-2.75,2.87-3.73,3.33h0Z"/><path class="cls-11" d="M259.65,281.39c.46-.22.93-.43,1.4-.64l.36.79c.45,1.05.91,2.17.75,3.31-.09.64-.47,1.27-.98,1.65-.39.29-.86.44-1.34.34-.84-.17-1.41-1-1.54-1.85-.13-.84.09-1.7.3-2.52.1-.38.22-.79.54-1,.15-.1.34-.12.51-.08Z"/><path class="cls-11" d="M238.24,259.45c.49,1.46.55,3.04.18,4.53-14.1,9.32-30.1,19.54-43.24,30.21.51-.95.57-2.08.63-3.16.05-.82-.26-1.97-1.06-1.84l-.69-.85c13.29-10.94,27.47-20.82,42.33-29.52.35-.21.76-.42,1.15-.29.38.13.57.54.7.92Z"/><path class="cls-11" d="M194.01,288.39s.03-.04.05-.05l.69.85c.8-.13,1.11,1.02,1.06,1.84-.06,1.08-.12,2.21-.63,3.16-.01.04-.03.07-.05.11-.55.99-1.73,1.72-2.8,1.38-.58-.19-1.03-.64-1.34-1.16-1.23-2.06.5-5.82,2.84-6.35l.18.22Z"/><path class="cls-1" d="M193.56,288.75c.15-.12.3-.25.45-.36.02-.02.03-.04.05-.05,13.29-10.94,27.47-20.82,42.33-29.52.35-.21.76-.42,1.15-.29.38.13.57.54.7.92.49,1.46.55,3.04.18,4.53-.03.17-.08.34-.13.5"/><path class="cls-1" d="M193.83,288.17c-2.34.53-4.07,4.29-2.84,6.35.31.52.76.97,1.34,1.16,1.07.34,2.25-.39,2.8-1.38.02-.04.04-.07.05-.11.51-.95.57-2.08.63-3.16.05-.82-.26-1.97-1.06-1.84"/><path class="cls-1" d="M194.87,294.44c.1-.08.2-.17.31-.25,13.14-10.67,29.14-20.89,43.24-30.21.05-.03.09-.06.14-.09"/><path class="cls-1" d="M260.02,281.8c0-.21-.16-.36-.37-.41-.17-.04-.36-.02-.51.08-.32.21-.44.62-.54,1-.21.82-.43,1.68-.3,2.52.13.85.7,1.68,1.54,1.85.48.1.95-.05,1.34-.34.51-.38.89-1.01.98-1.65.16-1.14-.3-2.26-.75-3.31"/><path class="cls-1" d="M259.08,281.66l.57-.27c.46-.22.93-.43,1.4-.64,12.77-5.8,26.55-9.07,40.22-12.29.12-.02.23-.05.35-.08"/><path class="cls-1" d="M261.13,286.89s.11-.03.16-.05c13.48-4.33,26.56-9.78,40.05-14.11,3.72-1.18,7.45-2.39,10.98-4.05.14-.06.27-.12.41-.19"/><path class="cls-1" d="M312.32,268.69c.98-.46,5.42-1.14,3.73-3.33-.22-.28-.7-.09-1.05-.01-4.39,1.01-7.63,1.68-13.73,3.12"/></g></svg>