<svg xmlns="http://www.w3.org/2000/svg" width="1241" height="647" viewBox="0 0 1241 647"><defs><style>.cls-1,.cls-11{fill:#fff;}.cls-10,.cls-13,.cls-14,.cls-2,.cls-3,.cls-4,.cls-5,.cls-6,.cls-7,.cls-8,.cls-9{fill:none;}.cls-10,.cls-11,.cls-13,.cls-14,.cls-2,.cls-3,.cls-4,.cls-5,.cls-6,.cls-7,.cls-8,.cls-9{stroke:#1e1e1c;stroke-miterlimit:10;}.cls-3,.cls-4,.cls-5{stroke-width:0.75px;}.cls-10,.cls-12,.cls-13,.cls-3,.cls-4,.cls-6,.cls-7,.cls-8{isolation:isolate;}.cls-3{opacity:0.3;}.cls-10,.cls-4{opacity:0.4;}.cls-12,.cls-13,.cls-6{opacity:0.2;}.cls-14,.cls-7{stroke-width:0.5px;}.cls-7{opacity:0.6;}.cls-8{opacity:0.5;}.cls-13,.cls-9{stroke-width:3px;}.cls-12{fill:#1e1e1c;}.cls-15{fill:#1d1d1b;}</style></defs><g id="background"><rect class="cls-1" width="1241" height="647"/></g><g id="parts"><g id="pullo"><path class="cls-2" d="M348.3,366.2a35.1994,35.1994,0,0,1,8.9-2.7V327.2" transform="translate(-19 -70)"/><path class="cls-2" d="M340,418.6c-10.2-9.3-10.2-23.3-10.2-23.3,0-15.6,12-24.8,13.2-25.7" transform="translate(-19 -70)"/><path class="cls-2" d="M381,421c-8,6.4-19.1,6.4-19.1,6.4a32.3,32.3,0,0,1-19-6.4" transform="translate(-19 -70)"/><path class="cls-2" d="M366.8,327.2v36.2h-.2a32.3,32.3,0,0,1,27.5,31.9c0,11.4-6.2,20-10.6,23.5" transform="translate(-19 -70)"/><path class="cls-2" d="M361.9,395.3" transform="translate(-19 -70)"/><path class="cls-2" d="M357.1,363.1" transform="translate(-19 -70)"/><path class="cls-2" d="M388.8,413c5.3,1,8.8,1.7,8.8,2.6s-16.1,4-36,4-36-1.8-36-4,4.6-1.7,9.5-2.5" transform="translate(-19 -70)"/><path class="cls-2" d="M361.6,411.6" transform="translate(-19 -70)"/><path class="cls-2" d="M387.5,414.6c3.9.5,13.1,1.7,13.1,3s-17.5,4-39,4-39-1.8-39-4,5.3-2.3,13.7-3" transform="translate(-19 -70)"/><polyline class="cls-2" points="310.2 349.6 296.1 435.9 289.6 476.3"/><line class="cls-2" x1="372.4" y1="350.4" x2="384.7" y2="487.1"/><line class="cls-2" x1="343.6" y1="357.4" x2="343.6" y2="449.6"/><path class="cls-2" d="M355.1,326.3c0,.7,3.1,1.4,6.9,1.4s6.9-.7,6.9-1.4" transform="translate(-19 -70)"/><line class="cls-2" x1="336" y1="256.8" x2="336" y2="253.1"/><path class="cls-2" d="M368.9,326.7" transform="translate(-19 -70)"/><line class="cls-2" x1="325.2" y1="303.6" x2="323.2" y2="297.2"/><line class="cls-2" x1="327.8" y1="293.9" x2="333.8" y2="300.9"/><path class="cls-2" d="M338.8,358c-.9.9-1.9,2.5-1.4,3.5s3.3,1.3,5,.3,3.2-3,2.5-4.3-3-1-4-.7" transform="translate(-19 -70)"/><path class="cls-2" d="M345.3,357.9l2.2,4.2-.5-1c.9,1.7,0,3.9-2.1,5s-4.4.7-5.3-.9h-.1l-1.7-3.2" transform="translate(-19 -70)"/><path class="cls-3" d="M344.2,367.7l29.4,53.9" transform="translate(-19 -70)"/><path class="cls-4" d="M341.7,363.2l.6,1" transform="translate(-19 -70)"/><path class="cls-5" d="M337.6,355.6l2.9,5.2" transform="translate(-19 -70)"/><path class="cls-5" d="M342.4,359.9c0-.1-2.7-5.1-2.8-5.3" transform="translate(-19 -70)"/><path class="cls-4" d="M344.2,363.1l-.5-.9" transform="translate(-19 -70)"/><path class="cls-3" d="M374.6,419.6l-28.5-52.9" transform="translate(-19 -70)"/><path class="cls-2" d="M219.4,433.2" transform="translate(-19 -70)"/><path class="cls-2" d="M201.6,433.2" transform="translate(-19 -70)"/><path class="cls-2" d="M218,426c1.4.5,3.6,1.3,3.6,2.2s-4.7,2.9-10.5,2.9-10.5-1.3-10.5-2.9,2.7-1.8,4-2.2" transform="translate(-19 -70)"/><path class="cls-2" d="M179.6,515.7v7.9" transform="translate(-19 -70)"/><path class="cls-2" d="M201.6,433.6c1,19-17,8-22,25v51.1" transform="translate(-19 -70)"/><path class="cls-2" d="M221.5,432.4c0,1.6-4.7,2.9-10.5,2.9s-10.4-1.3-10.4-2.9" transform="translate(-19 -70)"/><line class="cls-2" x1="181.6" y1="358.6" x2="181.6" y2="362.6"/><line class="cls-2" x1="202.6" y1="358.6" x2="202.6" y2="362.6"/><path class="cls-2" d="M213.2,414.1c2.7.3,6.4,1.2,6.4,2.2s-3.6,2.2-8,2.2-8-1-8-2.2,4.6-2,6.1-2.1" transform="translate(-19 -70)"/><path class="cls-2" d="M204.8,425.9" transform="translate(-19 -70)"/><path class="cls-2" d="M203.6,416.6" transform="translate(-19 -70)"/><path class="cls-2" d="M209.6,417.1V404.8c-19-33,6-70,62-77,31.7-3.5,52.1,8.7,68.3,25.8.3.6-.2,1.5-1.2,2s-2,.5-2.3-.1c-12.3-18.4-35.1-24.5-48.3-25.9s-31.2,3.6-35,4.4a71.597,71.597,0,0,0-18,6.6c-18.9,9.7-41.5,34.5-21.5,63.5v13" transform="translate(-19 -70)"/><line class="cls-2" x1="154.6" y1="439.6" x2="164.6" y2="439.6"/><line class="cls-2" x1="154.6" y1="445.6" x2="164.6" y2="445.6"/><path class="cls-2" d="M171.9,511.2c.2-.3.6-1.6,1.3-1.6s1.5,1.6,1.5,3-.7,3-1.5,3-1.2-1.2-1.4-1.9" transform="translate(-19 -70)"/><path class="cls-2" d="M267.6,567.2a73.1276,73.1276,0,0,1-8.8-.2h-.1c-.7-4.2-.9-8.1,2.9-9.3l19,4" transform="translate(-19 -70)"/><line class="cls-2" x1="246.6" y1="510.6" x2="248.6" y2="496.8"/><path class="cls-2" d="M271.6,581.6s11-16.3,8.4-20.1" transform="translate(-19 -70)"/><path class="cls-2" d="M274.8,556.7c-.8-.4-3.3-2.4-3-3.7s3.9-2.1,6.6-1.3,5.4,2.9,5,4.5-5.2,1.6-5.9,1.5" transform="translate(-19 -70)"/><path class="cls-2" d="M265.6,580.6c-14,23,64.3,35,182.3,15" transform="translate(-19 -70)"/><path class="cls-2" d="M271.6,581.6c-14,23,75,27,176,12" transform="translate(-19 -70)"/><rect class="cls-2" x="436.6" y="511.6" width="75" height="26"/><line class="cls-2" x1="426.2" y1="526.4" x2="436.6" y2="537.6"/><line class="cls-2" x1="425.6" y1="506.6" x2="436.6" y2="511.6"/><line class="cls-2" x1="425.6" y1="523.8" x2="425.6" y2="506.1"/><line class="cls-2" x1="498.6" y1="506.6" x2="425.6" y2="506.6"/><line class="cls-2" x1="497.8" y1="506.6" x2="511.6" y2="511.6"/><path class="cls-2" d="M530.5,592.1l28.4-2c4.7-.3,9.5-.7,13.9-2.4s8.5-4.9,9.9-9.4-1-12-5.3-16.1-9.9-6.3-15.4-8.5L538,544c-5.4-2.2-11-4.5-15-8.8s-5.7-11.2-2.4-16.1,7.4-5.3,12-5.8,9.2-.4,13.5-1.9,9.8-6.6,12.9-11.6c7.5-12.2,8.8-27.2,8.9-41.6a195.7014,195.7014,0,0,0-.9-23c-1.5-15.3-5.1-30.6-2.8-45.8" transform="translate(-19 -70)"/><path class="cls-2" d="M359.7,262.2V297a2.2,2.2,0,0,0-1.5,2c0,1.5.9,1.3,1.5,2s-1.7,3.3-2,5,0,17,0,17" transform="translate(-19 -70)"/><ellipse class="cls-2" cx="343.1" cy="253" rx="6.9" ry="1.4"/><path class="cls-2" d="M366.7,323V306c.3-2.1-3-4.5-2-5s1.1-.5,1.5-1.7-1.5-2.3-1.5-2.3V262.2" transform="translate(-19 -70)"/><path class="cls-2" d="M208.3,402.4c.3-1.6,2.6-1.8,3.1-1.7" transform="translate(-19 -70)"/><line class="cls-2" x1="340.7" y1="178.6" x2="340.7" y2="153.2"/><line class="cls-2" x1="345.7" y1="178.6" x2="345.7" y2="153.2"/><path class="cls-2" d="M364.7,223.7" transform="translate(-19 -70)"/><path class="cls-2" d="M359.7,223.7" transform="translate(-19 -70)"/><path class="cls-2" d="M359.7,223.2c0-.6,1.1-1,2.5-1s2.5.4,2.5,1" transform="translate(-19 -70)"/><path class="cls-2" d="M347.8,366.3" transform="translate(-19 -70)"/><path class="cls-2" d="M343,369.4" transform="translate(-19 -70)"/><path class="cls-2" d="M258.6,560.4c-96-9-136.8-40.6-85.8-46.6h0a4.2,4.2,0,0,0,.1-2.7h0c-52,9-25.6,39.8,85.4,51.8" transform="translate(-19 -70)"/><path class="cls-2" d="M265.6,580.6c1.9-1,3.8-.5,5.7,1.4" transform="translate(-19 -70)"/><path class="cls-2" d="M273.6,559.6l2-5c1.2-1.1,2.2-.7,3,.8l-3,5.2" transform="translate(-19 -70)"/><path class="cls-2" d="M209.5,416.6a4.3005,4.3005,0,0,0,4.1,0" transform="translate(-19 -70)"/><path class="cls-2" d="M203.6,416.3l1.7,12.3a28.302,28.302,0,0,0,12.3,0l2-12.1" transform="translate(-19 -70)"/><path class="cls-2" d="M447.2,593.7c.7-.2.8.9.6,2.4" transform="translate(-19 -70)"/><path class="cls-6" d="M336.7,414.5a350.19,350.19,0,0,1,51.2.1" transform="translate(-19 -70)"/><path class="cls-6" d="M335.1,413.1a370.2772,370.2772,0,0,1,53.7-.1" transform="translate(-19 -70)"/><line class="cls-6" x1="343.6" y1="343.5" x2="343.6" y2="357.3"/><line class="cls-6" x1="339.3" y1="254.4" x2="341" y2="261.4"/><line class="cls-6" x1="347" y1="254.3" x2="345.3" y2="261.5"/><path class="cls-7" d="M221.7,449.8c.8-1.4,10.9.8,14.2,7.7a14.1,14.1,0,0,1,.9,2.7c2.2,9.7.9,21.3-.1,21.3s1.3-9.6-4.1-19.4S220.9,451,221.7,449.8Z" transform="translate(-19 -70)"/><path class="cls-7" d="M372.1,370.1c6.5,6.1,8.5,11.7,9,15.8s-.5,9.4,1.2,10.2,4.5-1.6,5.5-4.4c1.7-4.6-2-9.7-3.9-12.4A27.3993,27.3993,0,0,0,372.1,370.1Z" transform="translate(-19 -70)"/><path class="cls-2" d="M437.1,534.1a3.8,3.8,0,0,0,4.7,0" transform="translate(-19 -70)"/><path class="cls-8" d="M359.7,223.2a6.2,6.2,0,0,0,5,0" transform="translate(-19 -70)"/><path class="cls-2" d="M219.8,433.7c-.9,19,17.1,8.1,22.2,25.1v64.8" transform="translate(-19 -70)"/><path class="cls-2" d="M242.1,523.6c0,5-14,9-31.2,9s-31.3-4-31.3-9" transform="translate(-19 -70)"/></g><g id="Layer_4" data-name="Layer 4"><path class="cls-2" d="M371.7,345h86.7v-2.5H371.7" transform="translate(-19 -70)"/><line class="cls-2" x1="307.7" y1="194.6" x2="360.7" y2="194.6"/><path class="cls-2" d="M354.7,259.6" transform="translate(-19 -70)"/><path class="cls-2" d="M326.7,264.6" transform="translate(-19 -70)"/><line class="cls-2" x1="360.7" y1="194.6" x2="387.7" y2="189.6"/><rect class="cls-2" x="335.7" y="178.6" width="52" height="11"/><line class="cls-2" x1="307.7" y1="194.6" x2="307.7" y2="186.6"/><path class="cls-2" d="M334.7,263.2" transform="translate(-19 -70)"/><line class="cls-2" x1="324.7" y1="181.6" x2="324.7" y2="191.6"/><line class="cls-2" x1="316.7" y1="183.6" x2="316.7" y2="192.6"/><line class="cls-2" x1="307.7" y1="194.6" x2="316.7" y2="192.6"/><line class="cls-2" x1="324.7" y1="191.6" x2="335.7" y2="189.6"/><line class="cls-2" x1="324.7" y1="191.6" x2="357.7" y2="191.6"/><line class="cls-2" x1="316.2" y1="192.6" x2="349.7" y2="192.6"/><line class="cls-2" x1="316.7" y1="183.6" x2="307.7" y2="186.6"/><line class="cls-2" x1="324.7" y1="181.6" x2="335.7" y2="178.6"/><line class="cls-2" x1="316.7" y1="183.6" x2="324.7" y2="183.6"/><line class="cls-9" x1="356.1" y1="193.6" x2="356.1" y2="206.2"/><line class="cls-9" x1="360.7" y1="192.1" x2="360.7" y2="204.7"/><path class="cls-10" d="M379.8,274.4c-.6,7.8,2.1,15.3,4.8,22.6a42.0944,42.0944,0,0,0,2.8,6.6c5,9.2,15.1,13.3,24.1,17.6s19.5,18.9,20.7,21.1" transform="translate(-19 -70)"/><path class="cls-10" d="M374.8,275.8a78.1966,78.1966,0,0,0,3.9,18.5c1.9,5.7,4.5,11.3,9.2,15.5a36.2022,36.2022,0,0,0,6.4,4.4c6.7,3.9,13.9,7.1,20.3,11.4s12,10,14.2,16.9" transform="translate(-19 -70)"/><path class="cls-10" d="M441.8,362.3a58.8,58.8,0,0,0,27.4,27.2c17.1,8.2,37.1,7.5,55.5,3a51.9027,51.9027,0,0,0,12.7-4.5c2.4-1.3,4.7-2.9,7.2-4.1,6.6-3.3,14.2-3.7,21.5-4" transform="translate(-19 -70)"/><path class="cls-10" d="M441.9,354.3c2.4,7.5,8,13.7,14.4,18.1s13.7,7.3,21,10.1a62.8039,62.8039,0,0,0,12.7,4.1c12.1,2.1,24.2-2.7,36-6a156.6967,156.6967,0,0,1,42-6" transform="translate(-19 -70)"/><path class="cls-11" d="M371.7,348.2a27.3011,27.3011,0,0,1-16.5,0v-7.6a43.6,43.6,0,0,0,16.5,0Z" transform="translate(-19 -70)"/><path class="cls-2" d="M366.7,337.5l3.5.2v2.6" transform="translate(-19 -70)"/><path class="cls-2" d="M354.9,345.1l-1.2.2v-7.6l3.3-.2" transform="translate(-19 -70)"/><path class="cls-6" d="M357.8,337.5h8.3" transform="translate(-19 -70)"/><path class="cls-8" d="M429.9,345.3c1.6,1.3,1.7,3.5,2.5,5.4a7.5014,7.5014,0,0,0,1,2,14.1963,14.1963,0,0,0,2.5,3,1.5,1.5,0,0,1,.6,1.1" transform="translate(-19 -70)"/><rect class="cls-11" x="352.7" y="271.5" width="8" height="4.93"/><polyline class="cls-2" points="359.1 271.1 359.1 269 351.2 269"/><path class="cls-2" d="M375.5,343.3c-.2-.1-.3,0-.4.1l-1.2,1.1a.5.5,0,0,0-.2.6,19.3031,19.3031,0,0,0,3.4.1h.3v-.3a2,2,0,0,0-2-1.9" transform="translate(-19 -70)"/><path class="cls-2" d="M373.1,339.2v-1.5a.4.4,0,0,0,.1-.3.6.6,0,0,1,.8,0,1.9,1.9,0,0,1,.2.8c.1.3.1.5.3.7" transform="translate(-19 -70)"/></g><g id="Layer_6" data-name="Layer 6"><path class="cls-12" d="M333.6,528.4l1.4-.2" transform="translate(-19 -70)"/><path class="cls-12" d="M321.5,541.4a32.6231,32.6231,0,0,1-4.2-1.5c-1.5-.8-2.4-1.7-2.4-2.6s1.9-2.5,5.2-3.6a78.1145,78.1145,0,0,1,12.5-2.5" transform="translate(-19 -70)"/><path class="cls-12" d="M324.2,539l-1.8-.5" transform="translate(-19 -70)"/><path class="cls-12" d="M335,528.2a218.3831,218.3831,0,0,1,22.8-1.2c23.2,0,42,3.4,42,7.5s-18.8,7.5-42,7.5c-13.7,0-26.8-.4-34.4-2.2" transform="translate(-19 -70)"/><line class="cls-13" x1="380.7" y1="464.6" x2="418.1" y2="464.1"/><ellipse class="cls-12" cx="192.5" cy="454.9" rx="26.3" ry="5.1"/><path class="cls-6" d="M239.9,524.9a197.901,197.901,0,0,0,101.2,16.2" transform="translate(-19 -70)"/><line class="cls-13" x1="422.8" y1="464.1" x2="439.3" y2="463.9"/></g><g id="pullo_2" data-name="pullo 2"><line class="cls-14" x1="342" y1="218.3" x2="342" y2="226.7"/><line class="cls-14" x1="344.5" y1="218.3" x2="344.5" y2="226.7"/><ellipse class="cls-14" cx="343.2" cy="218.2" rx="1.2" ry="0.4"/><path class="cls-14" d="M363.5,296.5c0,.2-.5.3-1.2.3s-1.2-.1-1.2-.3" transform="translate(-19 -70)"/></g><g id="Layer_1" data-name="Layer 1"><path class="cls-2" d="M437.1,345.1v189" transform="translate(-19 -70)"/><path class="cls-2" d="M437.1,263.6v78.8" transform="translate(-19 -70)"/><path class="cls-2" d="M437.1,218.1v39.3" transform="translate(-19 -70)"/><path class="cls-2" d="M441.8,344.7V534.1" transform="translate(-19 -70)"/><path class="cls-2" d="M441.8,259.9v82.4" transform="translate(-19 -70)"/><path class="cls-2" d="M441.8,218.1v39.3" transform="translate(-19 -70)"/><line class="cls-2" x1="418.1" y1="455.1" x2="319.1" y2="455.1"/><line class="cls-2" x1="422.8" y1="455.1" x2="454.1" y2="455.1"/><line class="cls-2" x1="472.1" y1="473.1" x2="454.1" y2="455.1"/><line class="cls-2" x1="319.1" y1="455.1" x2="301.1" y2="473.1"/><line class="cls-2" x1="472.1" y1="473.1" x2="301.1" y2="473.1"/><line class="cls-2" x1="301.1" y1="473.1" x2="301.1" y2="477.6"/><line class="cls-2" x1="472.1" y1="477.6" x2="301.1" y2="477.6"/><line class="cls-2" x1="472.1" y1="473.1" x2="472.1" y2="477.6"/><path class="cls-2" d="M436.8,218.1a3.7,3.7,0,0,1,5,0" transform="translate(-19 -70)"/><path class="cls-11" d="M435.4,345.2a3.7959,3.7959,0,0,0-1,.3,4.1,4.1,0,0,0-1.2,1.9c-.2.5-.3,1.2.1,1.5l.4.2,5.1,2a19.41,19.41,0,0,0,.7-2.2,8.1007,8.1007,0,0,0,.1-2.2c-.1-1-.2-3.3-1.8-2.6S436.3,344.9,435.4,345.2Z" transform="translate(-19 -70)"/><path class="cls-2" d="M441.9,341.8a4.5007,4.5007,0,0,0,2-.4l.3-.2c.2-.1.2-.3.3-.5s.1-1.2-.3-1.4a.7.7,0,0,0-.6-.2h-2.1" transform="translate(-19 -70)"/><line class="cls-14" x1="380.7" y1="196.2" x2="478.9" y2="248.9"/><polyline class="cls-2" points="387.7 187.9 436.4 188 436.4 189.9 386.6 189.9"/><path class="cls-11" d="M435.9,260.2l-1,.4a3.7,3.7,0,0,0-1.2,1.9,1.4,1.4,0,0,0,.1,1.5l.4.2,5.1,2a11.6033,11.6033,0,0,0,.6-2.2,8.6022,8.6022,0,0,0,.2-2.3c-.1-1-.2-3.2-1.8-2.6A10.4075,10.4075,0,0,1,435.9,260.2Z" transform="translate(-19 -70)"/><path class="cls-2" d="M442.2,257.4a4.5007,4.5007,0,0,0,2-.4l.3-.2a.8006.8006,0,0,0,.2-.5c.1-.5.2-1.2-.2-1.5h-2.7" transform="translate(-19 -70)"/></g></g><g id="lines"><line class="cls-14" x1="217.2" y1="213" x2="327.1" y2="276.7"/><line class="cls-14" x1="349.4" y1="168.7" x2="431.4" y2="131.1"/><line class="cls-14" x1="238.3" y1="159" x2="336.2" y2="222.5"/><line class="cls-14" x1="323" y1="571.4" x2="425.6" y2="537.6"/><line class="cls-14" x1="159.6" y1="546.9" x2="237.5" y2="500"/></g><g id="text"><path class="cls-15" d="M237.1226,222.6162a2.7653,2.7653,0,0,0,1.3916.42c.7675,0,1.1269-.3838,1.1269-.8632,0-.504-.3-.78-1.0791-1.0674-1.0434-.3721-1.5351-.9478-1.5351-1.6436a1.79,1.79,0,0,1,2.0029-1.7026,2.8994,2.8994,0,0,1,1.4272.3594l-.2641.7675a2.2618,2.2618,0,0,0-1.187-.3354c-.6241,0-.9717.36-.9717.7915,0,.48.3476.6953,1.1035.9834,1.0073.3838,1.5229.8877,1.5229,1.751,0,1.02-.7915,1.7392-2.1709,1.7392a3.3109,3.3109,0,0,1-1.6308-.396Z" transform="translate(-19 -70)"/><path class="cls-15" d="M242.4023,217.8911l1.2715,3.43c.1319.3838.2759.8393.3716,1.187h.0239c.1079-.3477.2281-.7915.3721-1.2114l1.1514-3.4058h1.1152l-1.583,4.1377c-.7559,1.9907-1.2715,3.01-1.9912,3.6338a2.8552,2.8552,0,0,1-1.2949.6836l-.2642-.8872a2.796,2.796,0,0,0,.9238-.5156,3.2019,3.2019,0,0,0,.8872-1.1758.7606.7606,0,0,0,.084-.2515.9206.9206,0,0,0-.0718-.2759l-2.1469-5.3491Z" transform="translate(-19 -70)"/><path class="cls-15" d="M247.67,215.1807h1.0557v8.5151H247.67Z" transform="translate(-19 -70)"/><path class="cls-15" d="M251.6777,216.26a.6536.6536,0,0,1-1.3071,0,.6433.6433,0,0,1,.66-.66A.6266.6266,0,0,1,251.6777,216.26Zm-1.1753,7.436v-5.8047h1.0557v5.8047Z" transform="translate(-19 -70)"/><path class="cls-15" d="M253.31,219.4619c0-.6-.0122-1.0913-.0479-1.5708h.9356l.06.9595h.0239a2.1341,2.1341,0,0,1,1.919-1.0913c.8032,0,2.0508.48,2.0508,2.47v3.4663h-1.0557V220.35c0-.9355-.3477-1.7148-1.3433-1.7148a1.4994,1.4994,0,0,0-1.415,1.0791,1.52,1.52,0,0,0-.0718.4917v3.49H253.31Z" transform="translate(-19 -70)"/><path class="cls-15" d="M261.1938,216.2241v1.667h1.5113v.8032h-1.5113v3.13c0,.72.2037,1.1274.7916,1.1274a2.3638,2.3638,0,0,0,.6113-.0717l.0483.7915a2.5836,2.5836,0,0,1-.9355.144,1.4644,1.4644,0,0,1-1.14-.4438,2.1514,2.1514,0,0,1-.4077-1.5113v-3.1665h-.8994v-.8032h.8994V216.5Z" transform="translate(-19 -70)"/><path class="cls-15" d="M264.41,220.9854A1.8593,1.8593,0,0,0,266.4009,223a3.8141,3.8141,0,0,0,1.6069-.3l.18.7559a4.7029,4.7029,0,0,1-1.9312.36,2.6957,2.6957,0,0,1-2.8545-2.9267c0-1.751,1.0318-3.13,2.7227-3.13a2.4594,2.4594,0,0,1,2.3989,2.7344,4.0368,4.0368,0,0,1-.0361.4917Zm3.0942-.7559a1.5029,1.5029,0,0,0-1.4634-1.7149,1.7491,1.7491,0,0,0-1.6191,1.7149Z" transform="translate(-19 -70)"/><path class="cls-15" d="M269.834,219.7021c0-.6835-.0117-1.2714-.0479-1.811h.9234l.0361,1.1392h.0479a1.7413,1.7413,0,0,1,1.6069-1.271,1.1435,1.1435,0,0,1,.3.0356v.9956a1.5879,1.5879,0,0,0-.3594-.0361,1.4811,1.4811,0,0,0-1.4155,1.3555,2.9777,2.9777,0,0,0-.0479.4917v3.0942H269.834Z" transform="translate(-19 -70)"/><path class="cls-15" d="M274.9814,216.26a.6536.6536,0,0,1-1.3071,0,.6433.6433,0,0,1,.66-.66A.6266.6266,0,0,1,274.9814,216.26Zm-1.1752,7.436v-5.8047h1.0556v5.8047Z" transform="translate(-19 -70)"/><path class="cls-15" d="M429.5283,190.6123c0-.7436-.0244-1.3433-.0488-1.895h.9482l.0479.9951h.0234a2.2822,2.2822,0,0,1,2.0635-1.127c1.4033,0,2.458,1.1871,2.458,2.95,0,2.087-1.2705,3.1182-2.6387,3.1182a2.034,2.034,0,0,1-1.7861-.9116h-.0244v3.1543h-1.043Zm1.043,1.5469a2.4242,2.4242,0,0,0,.0478.4316,1.6291,1.6291,0,0,0,1.583,1.2354c1.1153,0,1.7637-.9112,1.7637-2.2427,0-1.1631-.6123-2.1587-1.7275-2.1587a1.6828,1.6828,0,0,0-1.5947,1.3071,1.704,1.704,0,0,0-.0723.4322Z" transform="translate(-19 -70)"/><path class="cls-15" d="M436.6562,188.7173l1.2706,3.43c.1318.3837.2763.8393.372,1.187h.0244c.1075-.3477.2276-.7915.3711-1.2115l1.1514-3.4057h1.1152l-1.583,4.1377c-.7549,1.9907-1.2705,3.01-1.99,3.6338a2.8578,2.8578,0,0,1-1.2959.6836l-.2637-.8872a2.8047,2.8047,0,0,0,.9239-.5157,3.2021,3.2021,0,0,0,.8876-1.1757.7614.7614,0,0,0,.084-.2515.9266.9266,0,0,0-.0722-.2759l-2.1465-5.3491Z" transform="translate(-19 -70)"/><path class="cls-15" d="M441.708,193.4424a2.7624,2.7624,0,0,0,1.3916.42c.7676,0,1.127-.3838,1.127-.8633,0-.5039-.3-.78-1.0791-1.0674-1.044-.372-1.5352-.9477-1.5352-1.6435a1.79,1.79,0,0,1,2.0029-1.7027,2.8932,2.8932,0,0,1,1.4268.3594l-.2637.7676a2.2608,2.2608,0,0,0-1.1875-.3354c-.623,0-.9707.36-.9707.7915,0,.4794.3477.6953,1.1026.9834,1.0078.3837,1.5234.8877,1.5234,1.7509,0,1.02-.791,1.7393-2.1709,1.7393a3.3124,3.3124,0,0,1-1.6309-.396Z" transform="translate(-19 -70)"/><path class="cls-15" d="M447.875,187.05v1.667h1.5117v.8032H447.875v3.13c0,.72.2041,1.1274.792,1.1274a2.36,2.36,0,0,0,.6113-.0718l.0479.7915a2.5783,2.5783,0,0,1-.9356.1441,1.4626,1.4626,0,0,1-1.1386-.4439,2.1505,2.1505,0,0,1-.4082-1.5112v-3.1665h-.8995v-.8032h.8995v-1.3911Z" transform="translate(-19 -70)"/><path class="cls-15" d="M451.0674,188.7173l1.27,3.43c.1318.3837.2764.8393.3721,1.187h.0244c.1074-.3477.2275-.7915.3711-1.2115l1.1513-3.4057h1.1162l-1.5839,4.1377c-.7549,1.9907-1.2705,3.01-1.99,3.6338a2.8531,2.8531,0,0,1-1.2959.6836l-.2636-.8872a2.8053,2.8053,0,0,0,.9238-.5157,3.2022,3.2022,0,0,0,.8877-1.1757.7637.7637,0,0,0,.084-.2515.9245.9245,0,0,0-.0723-.2759l-2.1465-5.3491Z" transform="translate(-19 -70)"/><path class="cls-15" d="M456.1191,193.4424a2.7627,2.7627,0,0,0,1.3916.42c.7676,0,1.127-.3838,1.127-.8633,0-.5039-.3-.78-1.0791-1.0674-1.044-.372-1.5352-.9477-1.5352-1.6435a1.79,1.79,0,0,1,2.003-1.7027,2.8928,2.8928,0,0,1,1.4267.3594l-.2636.7676a2.2614,2.2614,0,0,0-1.1875-.3354c-.6231,0-.9708.36-.9708.7915,0,.4794.3477.6953,1.1026.9834,1.0078.3837,1.5234.8877,1.5234,1.7509,0,1.02-.791,1.7393-2.1709,1.7393a3.312,3.312,0,0,1-1.6308-.396Z" transform="translate(-19 -70)"/><path class="cls-15" d="M465.8721,192.939c0,.6.0127,1.1274.0488,1.583h-.9355l-.0606-.9473h-.0234a2.1858,2.1858,0,0,1-1.919,1.0791c-.9121,0-2.0029-.5034-2.0029-2.5425v-3.394h1.0547v3.2143c0,1.1031.3359,1.8467,1.2959,1.8467a1.4871,1.4871,0,0,0,1.4873-1.499v-3.562h1.0547Z" transform="translate(-19 -70)"/><path class="cls-15" d="M472.8809,191.5718a2.837,2.837,0,0,1-2.8907,3.082,2.76,2.76,0,0,1-2.7822-2.9863,2.8338,2.8338,0,0,1,2.8779-3.0821A2.7492,2.7492,0,0,1,472.8809,191.5718Zm-4.6055.06c0,1.2715.7314,2.231,1.7627,2.231,1.0078,0,1.7627-.9473,1.7627-2.2549,0-.9834-.4912-2.23-1.7383-2.23S468.2754,190.5283,468.2754,191.6313Z" transform="translate(-19 -70)"/><path class="cls-15" d="M474.2158,190.5283c0-.6836-.0127-1.2715-.0488-1.811h.9238l.0362,1.1391h.0478a1.7415,1.7415,0,0,1,1.6074-1.271,1.1433,1.1433,0,0,1,.3.0357v.9956a1.5938,1.5938,0,0,0-.36-.0361,1.4814,1.4814,0,0,0-1.4151,1.3554,3.0357,3.0357,0,0,0-.0478.4917v3.0943h-1.043Z" transform="translate(-19 -70)"/><path class="cls-15" d="M481.2939,194.522l-.0839-.7315h-.0362a2.1627,2.1627,0,0,1-1.7754.8633,1.6536,1.6536,0,0,1-1.7744-1.667c0-1.4033,1.2471-2.1709,3.49-2.1587v-.12a1.1968,1.1968,0,0,0-1.3194-1.3433,2.8958,2.8958,0,0,0-1.5117.4317l-.2393-.6953a3.5986,3.5986,0,0,1,1.9063-.5157c1.7754,0,2.207,1.211,2.207,2.3746v2.1709a8.2456,8.2456,0,0,0,.0957,1.3911Zm-.1562-2.9624c-1.1514-.024-2.458.18-2.458,1.3071a.9339.9339,0,0,0,.9951,1.0078,1.4442,1.4442,0,0,0,1.4033-.9717,1.0949,1.0949,0,0,0,.06-.3359Z" transform="translate(-19 -70)"/><path class="cls-15" d="M486.4072,190.6123c0-.7436-.0244-1.3433-.0488-1.895h.9482l.0479.9951h.0234a2.2822,2.2822,0,0,1,2.0635-1.127c1.4033,0,2.458,1.1871,2.458,2.95,0,2.087-1.2705,3.1182-2.6387,3.1182a2.034,2.034,0,0,1-1.7861-.9116H487.45v3.1543h-1.043Zm1.043,1.5469a2.4242,2.4242,0,0,0,.0478.4316,1.6291,1.6291,0,0,0,1.5831,1.2354c1.1152,0,1.7636-.9112,1.7636-2.2427,0-1.1631-.6123-2.1587-1.7275-2.1587a1.6828,1.6828,0,0,0-1.5947,1.3071,1.704,1.704,0,0,0-.0723.4322Z" transform="translate(-19 -70)"/><path class="cls-15" d="M498.0918,192.939c0,.6.0127,1.1274.0488,1.583h-.9355l-.0606-.9473h-.0234a2.1858,2.1858,0,0,1-1.919,1.0791c-.9121,0-2.0029-.5034-2.0029-2.5425v-3.394h1.0547v3.2143c0,1.1031.3359,1.8467,1.2959,1.8467a1.4871,1.4871,0,0,0,1.4873-1.499v-3.562h1.0547Z" transform="translate(-19 -70)"/><path class="cls-15" d="M501.1182,187.05v1.667H502.63v.8032h-1.5117v3.13c0,.72.2041,1.1274.792,1.1274a2.3616,2.3616,0,0,0,.6113-.0718l.0478.7915a2.5772,2.5772,0,0,1-.9355.1441,1.463,1.463,0,0,1-1.1387-.4439,2.151,2.151,0,0,1-.4082-1.5112v-3.1665h-.8994v-.8032h.8994v-1.3911Z" transform="translate(-19 -70)"/><path class="cls-15" d="M504.8623,191.38h.0244c.1436-.2041.3477-.4561.5156-.66l1.7032-2.0029h1.27l-2.2422,2.3867,2.5547,3.418h-1.2832l-2.003-2.7827-.54.6v2.1826h-1.043v-8.5152h1.043Z" transform="translate(-19 -70)"/><path class="cls-15" d="M510.8262,187.0859a.6538.6538,0,0,1-1.3076,0,.6436.6436,0,0,1,.66-.66A.6266.6266,0,0,1,510.8262,187.0859Zm-1.1748,7.4361v-5.8047h1.0547v5.8047Z" transform="translate(-19 -70)"/><path class="cls-15" d="M484.1729,328.5718a2.8371,2.8371,0,0,1-2.8907,3.082,2.76,2.76,0,0,1-2.7822-2.9863,2.8343,2.8343,0,0,1,2.8779-3.0821A2.7492,2.7492,0,0,1,484.1729,328.5718Zm-4.6055.06c0,1.2715.7314,2.231,1.7627,2.231,1.0078,0,1.7627-.9473,1.7627-2.2549,0-.9834-.4912-2.23-1.7383-2.23S479.5674,327.5283,479.5674,328.6313Z" transform="translate(-19 -70)"/><path class="cls-15" d="M485.5078,327.6123c0-.7436-.0244-1.3433-.0488-1.895h.9482l.0479.9951h.0234a2.2822,2.2822,0,0,1,2.0635-1.127c1.4033,0,2.458,1.1871,2.458,2.95,0,2.087-1.2705,3.1182-2.6387,3.1182a2.034,2.034,0,0,1-1.7861-.9116h-.0244v3.1543h-1.043Zm1.043,1.5469a2.4242,2.4242,0,0,0,.0478.4316,1.6291,1.6291,0,0,0,1.583,1.2354c1.1153,0,1.7637-.9112,1.7637-2.2427,0-1.1631-.6123-2.1587-1.7275-2.1587a1.6829,1.6829,0,0,0-1.5948,1.3071,1.7083,1.7083,0,0,0-.0722.4322Z" transform="translate(-19 -70)"/><path class="cls-15" d="M493.6064,324.05v1.667h1.5118v.8032h-1.5118v3.13c0,.72.2041,1.1274.792,1.1274a2.3619,2.3619,0,0,0,.6114-.0718l.0478.7915a2.5772,2.5772,0,0,1-.9355.1441,1.463,1.463,0,0,1-1.1387-.4439,2.151,2.151,0,0,1-.4082-1.5112v-3.1665h-.8994v-.8032h.8994v-1.3911Z" transform="translate(-19 -70)"/><path class="cls-15" d="M497.4824,324.0859a.6538.6538,0,0,1-1.3076,0,.6437.6437,0,0,1,.66-.66A.6266.6266,0,0,1,497.4824,324.0859Zm-1.1748,7.4361v-5.8047h1.0547v5.8047Z" transform="translate(-19 -70)"/><path class="cls-15" d="M499.1152,327.2881c0-.6-.0127-1.0913-.0488-1.5708h.9356l.06.9595h.0234a2.1354,2.1354,0,0,1,1.919-1.0914c.8037,0,2.0508.48,2.0508,2.47v3.4663H503.001v-3.3462c0-.9356-.3487-1.7149-1.3438-1.7149a1.4994,1.4994,0,0,0-1.415,1.0791,1.52,1.52,0,0,0-.0723.4917v3.49h-1.0547Z" transform="translate(-19 -70)"/><path class="cls-15" d="M506.3623,328.8115a1.86,1.86,0,0,0,1.9912,2.0147,3.8193,3.8193,0,0,0,1.6074-.3l.18.7558a4.7013,4.7013,0,0,1-1.9306.36,2.6957,2.6957,0,0,1-2.8545-2.9268c0-1.7509,1.0312-3.13,2.7226-3.13a2.4593,2.4593,0,0,1,2.3985,2.7344,4.0308,4.0308,0,0,1-.0362.4917Zm3.0947-.7558a1.503,1.503,0,0,0-1.4629-1.7149,1.7492,1.7492,0,0,0-1.6191,1.7149Z" transform="translate(-19 -70)"/><path class="cls-15" d="M511.7871,327.2881c0-.6-.0127-1.0913-.0488-1.5708h.9355l.0606.9595h.0234a2.1354,2.1354,0,0,1,1.919-1.0914c.8037,0,2.0507.48,2.0507,2.47v3.4663h-1.0546v-3.3462c0-.9356-.3487-1.7149-1.3438-1.7149a1.4994,1.4994,0,0,0-1.415,1.0791,1.52,1.52,0,0,0-.0723.4917v3.49h-1.0547Z" transform="translate(-19 -70)"/><path class="cls-15" d="M520.9912,323.0068h1.0547v8.5152h-1.0547Z" transform="translate(-19 -70)"/><path class="cls-15" d="M527.0371,331.522l-.084-.7315h-.0361a2.1614,2.1614,0,0,1-1.7754.8633,1.6536,1.6536,0,0,1-1.7744-1.667c0-1.4033,1.2471-2.1709,3.49-2.1587v-.12a1.1967,1.1967,0,0,0-1.3193-1.3433,2.8955,2.8955,0,0,0-1.5117.4317l-.2393-.6953a3.5983,3.5983,0,0,1,1.9063-.5157c1.7754,0,2.207,1.211,2.207,2.3746v2.1709a8.2456,8.2456,0,0,0,.0957,1.3911Zm-.1562-2.9624c-1.1514-.024-2.458.18-2.458,1.3071a.9338.9338,0,0,0,.9951,1.0078,1.4444,1.4444,0,0,0,1.4033-.9717,1.0979,1.0979,0,0,0,.06-.3359Z" transform="translate(-19 -70)"/><path class="cls-15" d="M529.4629,330.4424a2.7624,2.7624,0,0,0,1.3916.42c.7676,0,1.1269-.3838,1.1269-.8633,0-.5039-.3-.78-1.0791-1.0674-1.0439-.372-1.5351-.9477-1.5351-1.6435a1.79,1.79,0,0,1,2.0029-1.7027,2.8935,2.8935,0,0,1,1.4268.3594l-.2637.7676a2.2611,2.2611,0,0,0-1.1875-.3354c-.623,0-.9707.36-.9707.7915,0,.4794.3477.6953,1.1025.9834,1.0079.3837,1.5235.8877,1.5235,1.7509,0,1.02-.791,1.7393-2.1709,1.7393a3.3121,3.3121,0,0,1-1.6309-.396Z" transform="translate(-19 -70)"/><path class="cls-15" d="M535.4023,328.38h.0245c.1435-.2041.3476-.4561.5156-.66l1.7031-2.0029h1.2705l-2.2422,2.3867,2.5547,3.418h-1.2832l-2.0029-2.7827-.54.6v2.1826h-1.0429v-8.5152h1.0429Z" transform="translate(-19 -70)"/><path class="cls-15" d="M544.8916,329.939c0,.6.0127,1.1274.0488,1.583h-.9355l-.0606-.9473h-.0234a2.1857,2.1857,0,0,1-1.9189,1.0791c-.9122,0-2.003-.5034-2.003-2.5425v-3.394h1.0547v3.2143c0,1.1031.3359,1.8467,1.2959,1.8467a1.4871,1.4871,0,0,0,1.4873-1.499v-3.562h1.0547Z" transform="translate(-19 -70)"/><path class="cls-15" d="M546.6465,327.5283c0-.6836-.0127-1.2715-.0488-1.811h.9238l.0361,1.1391h.0479a1.7414,1.7414,0,0,1,1.6074-1.271,1.1487,1.1487,0,0,1,.3.0357v.9956a1.5941,1.5941,0,0,0-.36-.0361,1.4806,1.4806,0,0,0-1.415,1.3554,3.0357,3.0357,0,0,0-.0478.4917v3.0943h-1.043Z" transform="translate(-19 -70)"/><path class="cls-15" d="M551.7939,324.0859a.6538.6538,0,0,1-1.3076,0,.6437.6437,0,0,1,.66-.66A.6266.6266,0,0,1,551.7939,324.0859Zm-1.1748,7.4361v-5.8047h1.0547v5.8047Z" transform="translate(-19 -70)"/><path class="cls-15" d="M202.9624,272.3945c0-.7436-.0239-1.3432-.0478-1.895h.9472l.0484.9951h.0239a2.2813,2.2813,0,0,1,2.0625-1.1269c1.4033,0,2.459,1.187,2.459,2.95,0,2.0869-1.2715,3.1181-2.6387,3.1181a2.0355,2.0355,0,0,1-1.7871-.9116h-.0239v3.1543h-1.0435Zm1.0435,1.5469a2.3778,2.3778,0,0,0,.0478.4316,1.6282,1.6282,0,0,0,1.583,1.2354c1.1157,0,1.7632-.9111,1.7632-2.2427,0-1.1631-.6118-2.1587-1.727-2.1587a1.6843,1.6843,0,0,0-1.5953,1.3072,1.729,1.729,0,0,0-.0717.4321Z" transform="translate(-19 -70)"/><path class="cls-15" d="M213.0044,276.3042l-.084-.7314h-.0361a2.1622,2.1622,0,0,1-1.7749.8632,1.6537,1.6537,0,0,1-1.7749-1.667c0-1.4033,1.247-2.1709,3.49-2.1586v-.12a1.1966,1.1966,0,0,0-1.3193-1.3432,2.8925,2.8925,0,0,0-1.5108.4316l-.24-.6953a3.6031,3.6031,0,0,1,1.9072-.5156c1.7749,0,2.2066,1.2109,2.2066,2.3745v2.1709a8.1393,8.1393,0,0,0,.0962,1.3911Zm-.1558-2.9624c-1.1513-.0239-2.459.18-2.459,1.3071a.9345.9345,0,0,0,.9957,1.0078,1.4448,1.4448,0,0,0,1.4033-.9716,1.115,1.115,0,0,0,.06-.336Z" transform="translate(-19 -70)"/><path class="cls-15" d="M216.75,268.8682a.6536.6536,0,0,1-1.3071,0,.6433.6433,0,0,1,.66-.66A.6266.6266,0,0,1,216.75,268.8682Zm-1.1753,7.436V270.5H216.63v5.8047Z" transform="translate(-19 -70)"/><path class="cls-15" d="M218.3823,272.07c0-.6-.0122-1.0913-.0478-1.5708h.9355l.06.9595h.0239a2.1341,2.1341,0,0,1,1.9189-1.0913c.8033,0,2.0508.4795,2.0508,2.47v3.4663h-1.0556V272.958c0-.9355-.3477-1.7148-1.3433-1.7148a1.4994,1.4994,0,0,0-1.415,1.0791,1.52,1.52,0,0,0-.0718.4917v3.49h-1.0557Z" transform="translate(-19 -70)"/><path class="cls-15" d="M225.63,273.5938a1.8593,1.8593,0,0,0,1.9907,2.0146,3.8137,3.8137,0,0,0,1.6069-.3l.18.7559a4.7027,4.7027,0,0,1-1.9311.36,2.6957,2.6957,0,0,1-2.8545-2.9267c0-1.751,1.0317-3.13,2.7226-3.13a2.46,2.46,0,0,1,2.399,2.7344,4.0325,4.0325,0,0,1-.0362.4917Zm3.0942-.7559a1.5029,1.5029,0,0,0-1.4634-1.7149,1.7492,1.7492,0,0,0-1.6191,1.7149Z" transform="translate(-19 -70)"/><path class="cls-15" d="M234.2681,276.3042l-.084-.7314h-.0362a2.1619,2.1619,0,0,1-1.7749.8632,1.6538,1.6538,0,0,1-1.7749-1.667c0-1.4033,1.2471-2.1709,3.49-2.1586v-.12a1.1966,1.1966,0,0,0-1.3193-1.3432,2.8923,2.8923,0,0,0-1.5108.4316l-.24-.6953a3.6031,3.6031,0,0,1,1.9072-.5156c1.7749,0,2.2065,1.2109,2.2065,2.3745v2.1709a8.15,8.15,0,0,0,.0962,1.3911Zm-.1558-2.9624c-1.1514-.0239-2.459.18-2.459,1.3071a.9345.9345,0,0,0,.9956,1.0078,1.4446,1.4446,0,0,0,1.4033-.9716,1.112,1.112,0,0,0,.06-.336Z" transform="translate(-19 -70)"/><path class="cls-15" d="M236.6938,275.2246a2.7659,2.7659,0,0,0,1.3916.42c.7676,0,1.127-.3838,1.127-.8633,0-.5039-.3-.78-1.0791-1.0673-1.0435-.3721-1.5352-.9478-1.5352-1.6436a1.79,1.79,0,0,1,2.003-1.7026,2.8994,2.8994,0,0,1,1.4272.3594l-.2641.7675a2.2619,2.2619,0,0,0-1.1871-.3354c-.624,0-.9716.36-.9716.7915,0,.48.3476.6953,1.1035.9834,1.0073.3838,1.5229.8877,1.5229,1.751,0,1.02-.7915,1.7392-2.1709,1.7392a3.3109,3.3109,0,0,1-1.6308-.396Z" transform="translate(-19 -70)"/><path class="cls-15" d="M242.8613,268.8325V270.5h1.5113v.8032h-1.5113v3.13c0,.72.2036,1.1274.7915,1.1274a2.37,2.37,0,0,0,.6118-.0717l.0479.7915a2.5836,2.5836,0,0,1-.9355.144,1.4644,1.4644,0,0,1-1.14-.4438,2.1514,2.1514,0,0,1-.4077-1.5113v-3.1665H240.93V270.5h.8994v-1.3911Z" transform="translate(-19 -70)"/><path class="cls-15" d="M246.7368,268.8682a.6536.6536,0,0,1-1.3071,0,.6433.6433,0,0,1,.66-.66A.6266.6266,0,0,1,246.7368,268.8682Zm-1.1753,7.436V270.5h1.0557v5.8047Z" transform="translate(-19 -70)"/><path class="cls-15" d="M251.584,276.3042l-.084-.7314h-.0361a2.1622,2.1622,0,0,1-1.7749.8632,1.6537,1.6537,0,0,1-1.7749-1.667c0-1.4033,1.247-2.1709,3.49-2.1586v-.12a1.1965,1.1965,0,0,0-1.3188-1.3432,2.8927,2.8927,0,0,0-1.5113.4316l-.24-.6953a3.6018,3.6018,0,0,1,1.9072-.5156c1.7749,0,2.2066,1.2109,2.2066,2.3745v2.1709a8.1393,8.1393,0,0,0,.0962,1.3911Zm-.1563-2.9624c-1.1513-.0239-2.4585.18-2.4585,1.3071a.9345.9345,0,0,0,.9956,1.0078,1.4449,1.4449,0,0,0,1.4034-.9716,1.1141,1.1141,0,0,0,.0595-.336Z" transform="translate(-19 -70)"/><path class="cls-15" d="M138.7749,629.2686a2.7755,2.7755,0,0,0,1.3916.42c.7676,0,1.127-.3838,1.127-.8643,0-.5039-.3-.7793-1.0791-1.0674-1.0435-.3711-1.5352-.9472-1.5352-1.6425a1.79,1.79,0,0,1,2.0029-1.7032,2.9052,2.9052,0,0,1,1.4273.3594l-.2642.7676a2.26,2.26,0,0,0-1.187-.336c-.624,0-.9717.36-.9717.792,0,.48.3477.6954,1.1035.9834,1.0074.3838,1.523.8877,1.523,1.751,0,1.0195-.7915,1.7393-2.1709,1.7393a3.3176,3.3176,0,0,1-1.6309-.3955Z" transform="translate(-19 -70)"/><path class="cls-15" d="M146.8853,630.3477l-.084-.7315h-.0362a2.16,2.16,0,0,1-1.7749.8633,1.6535,1.6535,0,0,1-1.7749-1.667c0-1.4033,1.2471-2.1709,3.49-2.1592v-.1191a1.1967,1.1967,0,0,0-1.3194-1.3438,2.8923,2.8923,0,0,0-1.5107.4317l-.24-.6953a3.6063,3.6063,0,0,1,1.9072-.5157c1.7749,0,2.2065,1.211,2.2065,2.3741v2.1709a8.1488,8.1488,0,0,0,.0962,1.3916Zm-2.9146-7.4483a.6139.6139,0,0,1,.6118-.6113.5864.5864,0,0,1,.5874.6113.594.594,0,0,1-.5874.6123A.6069.6069,0,0,1,143.9707,622.8994Zm2.7588,4.4863c-1.1514-.0244-2.459.18-2.459,1.3067a.9345.9345,0,0,0,.9956,1.0078,1.4441,1.4441,0,0,0,1.4033-.9717,1.1054,1.1054,0,0,0,.06-.3359Zm-.5278-4.4863a.6035.6035,0,0,1,.6-.6113.5865.5865,0,0,1,.5874.6113.5938.5938,0,1,1-1.187,0Z" transform="translate(-19 -70)"/><path class="cls-15" d="M152.6689,630.3477l-.0839-.7315h-.0362a2.16,2.16,0,0,1-1.7749.8633,1.6535,1.6535,0,0,1-1.7749-1.667c0-1.4033,1.2471-2.1709,3.49-2.1592v-.1191A1.1966,1.1966,0,0,0,151.17,625.19a2.8927,2.8927,0,0,0-1.5112.4317l-.24-.6953a3.6052,3.6052,0,0,1,1.9072-.5157c1.7749,0,2.2065,1.211,2.2065,2.3741v2.1709a8.1488,8.1488,0,0,0,.0962,1.3916Zm-2.9145-7.4483a.6139.6139,0,0,1,.6118-.6113.5865.5865,0,0,1,.5874.6113.594.594,0,0,1-.5874.6123A.6068.6068,0,0,1,149.7544,622.8994Zm2.7583,4.4863c-1.1514-.0244-2.4585.18-2.4585,1.3067A.9345.9345,0,0,0,151.05,629.7a1.4441,1.4441,0,0,0,1.4033-.9717,1.1047,1.1047,0,0,0,.06-.3359Zm-.5273-4.4863a.6035.6035,0,0,1,.6-.6113.5865.5865,0,0,1,.5874.6113.5938.5938,0,1,1-1.187,0Z" transform="translate(-19 -70)"/><path class="cls-15" d="M156.4624,622.876v1.667h1.5112v.8037h-1.5112v3.13c0,.72.2036,1.1279.7915,1.1279a2.3309,2.3309,0,0,0,.6113-.0723l.0484.791a2.5821,2.5821,0,0,1-.9356.1446,1.4627,1.4627,0,0,1-1.14-.4444,2.1489,2.1489,0,0,1-.4077-1.5107v-3.166h-.8995v-.8037h.8995v-1.3916Z" transform="translate(-19 -70)"/><path class="cls-15" d="M164.3438,627.3975a2.8368,2.8368,0,0,1-2.89,3.082,2.76,2.76,0,0,1-2.7827-2.9863,2.8347,2.8347,0,0,1,2.8784-3.0821A2.7485,2.7485,0,0,1,164.3438,627.3975Zm-4.6055.0595c0,1.2715.7319,2.2315,1.7632,2.2315,1.0073,0,1.7631-.9483,1.7631-2.2549,0-.9834-.4917-2.2315-1.7392-2.2315S159.7383,626.3535,159.7383,627.457Zm.0483-4.5576a.6138.6138,0,0,1,.6113-.6113.5868.5868,0,0,1,.5879.6113.5941.5941,0,0,1-.5879.6123A.6064.6064,0,0,1,159.7866,622.8994Zm2.2305,0a.6038.6038,0,0,1,.6-.6113.5869.5869,0,0,1,.5879.6113.594.594,0,1,1-1.1875,0Z" transform="translate(-19 -70)"/><path class="cls-15" d="M166.0024,624.543l1.14,3.2617a15.068,15.068,0,0,1,.4678,1.4873h.0356c.1318-.48.3-.959.4917-1.4873l1.1274-3.2617h1.1036l-2.2788,5.8047H167.082l-2.207-5.8047Z" transform="translate(-19 -70)"/><path class="cls-15" d="M171.8345,627.6367a1.86,1.86,0,0,0,1.9907,2.0156,3.8137,3.8137,0,0,0,1.6069-.3l.18.7549a4.699,4.699,0,0,1-1.9311.36,2.6959,2.6959,0,0,1-2.8545-2.9268c0-1.751,1.0317-3.13,2.7226-3.13a2.4594,2.4594,0,0,1,2.3989,2.7344,4.0165,4.0165,0,0,1-.0361.4912Zm3.0942-.7549a1.5034,1.5034,0,0,0-1.4634-1.7158,1.75,1.75,0,0,0-1.6191,1.7158Z" transform="translate(-19 -70)"/><path class="cls-15" d="M177.2588,626.1143c0-.6-.0117-1.0918-.0479-1.5713h.9356l.06.959h.0244a2.1337,2.1337,0,0,1,1.9189-1.0909c.8032,0,2.0508.4795,2.0508,2.4707v3.4659h-1.0557V627.002c0-.9356-.3476-1.7159-1.3432-1.7159a1.5,1.5,0,0,0-1.4151,1.08,1.52,1.52,0,0,0-.0717.4912v3.49h-1.0557Z" transform="translate(-19 -70)"/><path class="cls-15" d="M185.1421,622.876v1.667h1.5112v.8037h-1.5112v3.13c0,.72.2036,1.1279.7915,1.1279a2.3309,2.3309,0,0,0,.6113-.0723l.0484.791a2.5821,2.5821,0,0,1-.9356.1446,1.4627,1.4627,0,0,1-1.14-.4444,2.1489,2.1489,0,0,1-.4077-1.5107v-3.166h-.8995v-.8037h.8995v-1.3916Z" transform="translate(-19 -70)"/><path class="cls-15" d="M189.1138,622.876v1.667h1.5112v.8037h-1.5112v3.13c0,.72.2036,1.1279.7915,1.1279a2.3309,2.3309,0,0,0,.6113-.0723l.0483.791a2.5815,2.5815,0,0,1-.9355.1446,1.463,1.463,0,0,1-1.14-.4444,2.1489,2.1489,0,0,1-.4077-1.5107v-3.166h-.8994v-.8037h.8994v-1.3916Z" transform="translate(-19 -70)"/><path class="cls-15" d="M192.99,622.9121a.6536.6536,0,0,1-1.3071,0,.6433.6433,0,0,1,.66-.66A.6266.6266,0,0,1,192.99,622.9121Zm-1.1752,7.4356V624.543H192.87v5.8047Z" transform="translate(-19 -70)"/><path class="cls-15" d="M195.7979,622.9121a.6536.6536,0,0,1-1.3072,0,.6433.6433,0,0,1,.66-.66A.6267.6267,0,0,1,195.7979,622.9121Zm-1.1753,7.4356V624.543h1.0556v5.8047Z" transform="translate(-19 -70)"/><path class="cls-15" d="M197.43,621.832h1.0556v8.5157H197.43Z" transform="translate(-19 -70)"/><path class="cls-15" d="M201.4375,622.9121a.6536.6536,0,0,1-1.3071,0,.6433.6433,0,0,1,.66-.66A.6267.6267,0,0,1,201.4375,622.9121Zm-1.1753,7.4356V624.543h1.0557v5.8047Z" transform="translate(-19 -70)"/><path class="cls-15" d="M298.9639,645.6953a.6539.6539,0,0,1-1.3077,0,.6438.6438,0,0,1,.66-.66A.6267.6267,0,0,1,298.9639,645.6953Zm-1.1748,7.4356v-5.8047h1.0547v5.8047Z" transform="translate(-19 -70)"/><path class="cls-15" d="M300.5967,644.6152h1.0547v8.5157h-1.0547Z" transform="translate(-19 -70)"/><path class="cls-15" d="M303.4287,648.8975c0-.6-.0127-1.0918-.0488-1.5713h.9238l.0479.9355h.0361a2.001,2.001,0,0,1,1.8232-1.0674,1.7157,1.7157,0,0,1,1.6426,1.1631h.0244a2.3887,2.3887,0,0,1,.6475-.7558,1.9808,1.9808,0,0,1,1.2832-.4073c.7676,0,1.9072.5039,1.9072,2.5186v3.418h-1.0312v-3.2862c0-1.1152-.4082-1.7871-1.26-1.7871a1.3653,1.3653,0,0,0-1.2471.96,1.7359,1.7359,0,0,0-.0839.5273v3.586h-1.0313v-3.4786c0-.9228-.4082-1.5947-1.2119-1.5947a1.5733,1.5733,0,0,0-1.3906,1.5713v3.502h-1.0313Z" transform="translate(-19 -70)"/><path class="cls-15" d="M316.65,653.1309l-.084-.7315H316.53a2.16,2.16,0,0,1-1.7754.8633,1.6534,1.6534,0,0,1-1.7744-1.667c0-1.4033,1.247-2.1709,3.49-2.1592v-.1191a1.1967,1.1967,0,0,0-1.3193-1.3438,2.8962,2.8962,0,0,0-1.5118.4317L313.4,647.71a3.6018,3.6018,0,0,1,1.9062-.5157c1.7754,0,2.2071,1.211,2.2071,2.3741v2.1709a8.2442,8.2442,0,0,0,.0957,1.3916Zm-.1563-2.962c-1.1513-.0244-2.458.18-2.458,1.3067a.9339.9339,0,0,0,.9951,1.0078,1.4438,1.4438,0,0,0,1.4034-.9717,1.0925,1.0925,0,0,0,.06-.3359Z" transform="translate(-19 -70)"/><path class="cls-15" d="M320.2637,649.9883h.0244c.1435-.2031.3476-.4551.5156-.6592l1.7031-2.0029h1.2705l-2.2421,2.3867,2.5546,3.418h-1.2832l-2.0029-2.7823-.54.6v2.1827h-1.043v-8.5157h1.043Z" transform="translate(-19 -70)"/><path class="cls-15" d="M330.1016,650.1807a2.8371,2.8371,0,0,1-2.8907,3.082,2.76,2.76,0,0,1-2.7822-2.9863,2.834,2.834,0,0,1,2.8779-3.0821A2.7492,2.7492,0,0,1,330.1016,650.1807Zm-4.6055.0595c0,1.2715.7314,2.2315,1.7627,2.2315,1.0078,0,1.7627-.9483,1.7627-2.2549,0-.9834-.4912-2.2314-1.7383-2.2314S325.4961,649.1367,325.4961,650.24Z" transform="translate(-19 -70)"/><path class="cls-15" d="M331.4365,648.8975c0-.6-.0127-1.0918-.0488-1.5713h.9238l.0479.9355h.0361a2.0011,2.0011,0,0,1,1.8233-1.0674,1.7156,1.7156,0,0,1,1.6425,1.1631h.0244a2.3887,2.3887,0,0,1,.6475-.7558,1.981,1.981,0,0,1,1.2832-.4073c.7676,0,1.9072.5039,1.9072,2.5186v3.418h-1.0312v-3.2862c0-1.1152-.4082-1.7871-1.26-1.7871a1.3653,1.3653,0,0,0-1.2471.96,1.7359,1.7359,0,0,0-.0839.5273v3.586H335.07v-3.4786c0-.9228-.4082-1.5947-1.2119-1.5947a1.5737,1.5737,0,0,0-1.3906,1.5713v3.502h-1.0313Z" transform="translate(-19 -70)"/><path class="cls-15" d="M341.4443,649.2207c0-.7432-.0244-1.3428-.0488-1.8945h.9483l.0478.9951h.0234a2.2831,2.2831,0,0,1,2.0635-1.127c1.4033,0,2.458,1.1875,2.458,2.95,0,2.0869-1.2705,3.1182-2.6386,3.1182a2.0348,2.0348,0,0,1-1.7862-.9111h-.0244v3.1543h-1.043Zm1.043,1.5479a2.4252,2.4252,0,0,0,.0479.4316,1.63,1.63,0,0,0,1.583,1.2353c1.1152,0,1.7636-.9121,1.7636-2.2431,0-1.1631-.6123-2.1592-1.7275-2.1592a1.6838,1.6838,0,0,0-1.5947,1.3076,1.7038,1.7038,0,0,0-.0723.4317Z" transform="translate(-19 -70)"/><path class="cls-15" d="M348.2725,649.1367c0-.6836-.0127-1.27-.0489-1.8105h.9239l.0361,1.14h.0478a1.7408,1.7408,0,0,1,1.6075-1.2715,1.1216,1.1216,0,0,1,.3.0362v.9951a1.5659,1.5659,0,0,0-.36-.0361,1.4809,1.4809,0,0,0-1.415,1.3554,3.0162,3.0162,0,0,0-.0479.4912v3.0948h-1.0429Z" transform="translate(-19 -70)"/><path class="cls-15" d="M352.6631,650.42a1.86,1.86,0,0,0,1.9912,2.0156,3.8181,3.8181,0,0,0,1.6074-.3l.18.7549a4.7,4.7,0,0,1-1.9307.36,2.696,2.696,0,0,1-2.8545-2.9268c0-1.751,1.0313-3.13,2.7227-3.13a2.4593,2.4593,0,0,1,2.3984,2.7344,4.0165,4.0165,0,0,1-.0361.4912Zm3.0947-.7549a1.5037,1.5037,0,0,0-1.4629-1.7158,1.75,1.75,0,0,0-1.6191,1.7158Z" transform="translate(-19 -70)"/><path class="cls-15" d="M357.9443,652.0518a2.7726,2.7726,0,0,0,1.3916.42c.7676,0,1.127-.3838,1.127-.8643,0-.5039-.3-.7793-1.0791-1.0674-1.044-.3711-1.5352-.9472-1.5352-1.6425a1.7905,1.7905,0,0,1,2.003-1.7032,2.8981,2.8981,0,0,1,1.4267.3594l-.2637.7676a2.26,2.26,0,0,0-1.1875-.3359c-.623,0-.9707.36-.9707.7919,0,.48.3477.6954,1.1026.9834,1.0078.3838,1.5234.8877,1.5234,1.751,0,1.0195-.791,1.7393-2.1709,1.7393a3.3175,3.3175,0,0,1-1.6308-.3955Z" transform="translate(-19 -70)"/><path class="cls-15" d="M362.6963,652.0518a2.7723,2.7723,0,0,0,1.3916.42c.7676,0,1.1269-.3838,1.1269-.8643,0-.5039-.3-.7793-1.0791-1.0674-1.0439-.3711-1.5351-.9472-1.5351-1.6425a1.79,1.79,0,0,1,2.0029-1.7032,2.8989,2.8989,0,0,1,1.4268.3594l-.2637.7676a2.2606,2.2606,0,0,0-1.1875-.3359c-.623,0-.9707.36-.9707.7919,0,.48.3477.6954,1.1025.9834,1.0079.3838,1.5235.8877,1.5235,1.751,0,1.0195-.791,1.7393-2.1709,1.7393a3.3176,3.3176,0,0,1-1.6309-.3955Z" transform="translate(-19 -70)"/><path class="cls-15" d="M372.8457,650.1807a2.8371,2.8371,0,0,1-2.8906,3.082,2.76,2.76,0,0,1-2.7822-2.9863,2.834,2.834,0,0,1,2.8779-3.0821A2.7491,2.7491,0,0,1,372.8457,650.1807Zm-4.6055.0595c0,1.2715.7315,2.2315,1.7627,2.2315,1.0078,0,1.7627-.9483,1.7627-2.2549,0-.9834-.4912-2.2314-1.7383-2.2314S368.24,649.1367,368.24,650.24Z" transform="translate(-19 -70)"/><path class="cls-15" d="M374.1807,649.1367c0-.6836-.0127-1.27-.0489-1.8105h.9239l.0361,1.14h.0478a1.7408,1.7408,0,0,1,1.6075-1.2715,1.1216,1.1216,0,0,1,.3.0362v.9951a1.5659,1.5659,0,0,0-.36-.0361,1.4809,1.4809,0,0,0-1.415,1.3554,3.0162,3.0162,0,0,0-.0479.4912v3.0948h-1.0429Z" transform="translate(-19 -70)"/><path class="cls-15" d="M379.3271,645.6953a.6538.6538,0,0,1-1.3076,0,.6438.6438,0,0,1,.66-.66A.6266.6266,0,0,1,379.3271,645.6953Zm-1.1748,7.4356v-5.8047h1.0547v5.8047Z" transform="translate(-19 -70)"/></g></svg>